<svg xmlns="http://www.w3.org/2000/svg" width="24" height="24"><g fill="none" fill-rule="evenodd"><rect width="24" height="24" fill="#F70000" rx="2"/><path fill="#FFF" d="M13.017 3s.624 2.236.624 4.05c0 1.739-1.139 3.148-2.877 3.148-1.747 0-3.064-1.409-3.064-3.147l.026-.304A11.619 11.619 0 005 14.249 6.75 6.75 0 0011.751 21a6.75 6.75 0 006.751-6.751C18.502 9.7 16.316 5.64 13.017 3zM11.75 19.312a5.067 5.067 0 01-5.063-5.063c0-1.291.253-2.565.726-3.738a4.71 4.71 0 003.35 1.375c2.244 0 4.008-1.544 4.455-3.738a12.465 12.465 0 011.595 6.1 5.067 5.067 0 01-5.063 5.064z"/><path fill="#FFA7A7" d="M11.388 13.54c-1.147.236-1.831.979-1.831 2.034 0 1.13.937 2.042 2.101 2.042a3.13 3.13 0 003.131-3.13 8.9 8.9 0 00-.388-2.634c-.667.903-1.857 1.452-3.013 1.688z"/></g></svg>