<svg xmlns="http://www.w3.org/2000/svg" width="36" height="36" viewBox="0 0 36 36">
  <g fill="none" fill-rule="evenodd">
    <circle cx="18" cy="18" r="18" fill="#000" opacity=".143"/>
    <path fill="#FFF" d="M18,12 C18.5522847,12 19,12.4477153 19,13 L19,17 L23,17 C23.5522847,17 24,17.4477153 24,18 C24,18.5522847 23.5522847,19 23,19 L19,19 L19,23 C19,23.5522847 18.5522847,24 18,24 C17.4477153,24 17,23.5522847 17,23 L17,19 L13,19 C12.4477153,19 12,18.5522847 12,18 C12,17.4477153 12.4477153,17 13,17 L17,17 L17,13 C17,12.4477153 17.4477153,12 18,12 Z"/>
  </g>
</svg>
