<?xml version="1.0" encoding="utf-8"?>
<svg width="65px" height="57px" viewBox="0 0 65 57" version="1.1" xmlns:xlink="http://www.w3.org/1999/xlink" xmlns="http://www.w3.org/2000/svg">
  <desc>Created with Lunacy</desc>
  <path d="M0 0L64 0L64 56L0 56L0 0Z" transform="translate(0.5 0.5)" id="Rectangle" fill="#394791" stroke="none" />
  <path d="M25.3333 0C25.6943 0 26.0069 0.131855 26.2711 0.395783C26.5344 0.659639 26.6662 0.971873 26.6663 1.33321L26.6663 17.333C26.6663 18.5275 26.434 19.7115 25.9685 20.8852C25.5026 22.0588 24.9263 23.1006 24.2388 24.0103C23.5513 24.9201 22.7317 25.8057 21.7809 26.6667C20.8292 27.5281 19.9509 28.2428 19.1451 28.8126C18.3399 29.382 17.4993 29.9204 16.6248 30.4267C15.7498 30.9335 15.1278 31.2778 14.7599 31.4581C14.3921 31.639 14.097 31.7777 13.875 31.8746C13.708 31.958 13.5279 32 13.3329 32C13.1383 32 12.9579 31.958 12.7911 31.8746C12.569 31.7777 12.2738 31.639 11.9058 31.4581C11.5379 31.2778 10.9162 30.9334 10.0413 30.4267C9.16628 29.9204 8.32597 29.382 7.52054 28.8126C6.71511 28.2428 5.83671 27.5282 4.88519 26.6667C3.93383 25.8057 3.11453 24.9202 2.42695 24.0103C1.73936 23.1006 1.16291 22.0588 0.697802 20.8852C0.232479 19.7115 0 18.5275 0 17.333L0 1.33321C0 0.972092 0.132001 0.659566 0.395783 0.395783C0.659712 0.131855 0.972238 0 1.33358 0L25.3333 0ZM17.7714 24.8331C21.0352 22.2776 22.6673 19.7778 22.6673 17.3333L22.6673 4L13.334 4L13.334 27.6873C14.9867 26.8123 16.466 25.8607 17.7714 24.8331Z" transform="translate(19.5 12.5)" id="Fill-1" fill="#FFFFFF" fill-rule="evenodd" stroke="none" />
</svg>