<?xml version="1.0" encoding="utf-8"?>
<svg width="65px" height="57px" viewBox="0 0 65 57" version="1.1" xmlns:xlink="http://www.w3.org/1999/xlink" xmlns="http://www.w3.org/2000/svg">
  <desc>Created with Lunacy</desc>
  <path d="M0 0L64 0L64 56L0 56L0 0Z" transform="translate(0.5 0.5)" id="Rectangle" fill="#394791" stroke="none" />
  <g id="tools" transform="translate(12.5 8.5)">
    <g id="tools">
      <path d="M0 0L40 0L40 40L0 40L0 0Z" id="Rectangle-4" fill="none" stroke="none" />
      <path d="M6.92708 0C7.37953 0.0972753 7.84468 0.155919 8.28236 0.298497C10.4655 1.00963 11.8745 2.49113 12.5216 4.67934C12.8709 5.86065 12.8214 7.05579 12.4825 8.2368C12.4265 8.43208 12.4488 8.56241 12.6017 8.71469C15.8707 11.97 19.1359 15.2293 22.3912 18.4984C22.5882 18.6962 22.7609 18.6399 22.9622 18.5942C24.1739 18.3191 25.3933 18.2301 26.5914 18.6144C28.9817 19.3812 30.436 21.02 30.983 23.4585C31.1902 24.3821 31.1262 25.3059 30.9065 26.221C30.7174 27.0078 29.9014 27.2497 29.3166 26.68C28.5267 25.9105 27.7591 25.1183 26.9707 24.3473C26.1212 23.5165 24.8729 23.583 24.173 24.4822C23.6805 25.115 23.6587 26.0658 24.1945 26.67C24.7708 27.3196 25.4056 27.9177 26.0162 28.5371C26.2577 28.782 26.5088 29.0178 26.7446 29.268C27.2925 29.8499 27.059 30.6446 26.2876 30.8402C22.7567 31.7357 19.2294 29.5315 18.5094 25.9663C18.3043 24.9502 18.3851 23.9332 18.6353 22.933C18.7065 22.648 18.6569 22.4647 18.4409 22.2501C15.2254 19.0556 12.0189 15.8521 8.81976 12.6414C8.61565 12.4366 8.44181 12.3818 8.16314 12.4491C6.84037 12.7685 5.50606 12.8314 4.2175 12.3389C1.97683 11.4825 0.606484 9.85931 0.125174 7.50499C0.0689062 7.22997 0.0410156 6.94912 0 6.671L0 6.12519C0.0750434 5.68963 0.129792 5.24935 0.229687 4.81949C0.410278 4.04281 1.2089 3.81078 1.79405 4.35604C2.03796 4.58334 2.26631 4.82713 2.50432 5.0608C3.13147 5.67666 3.73734 6.31659 4.39469 6.89848C4.99418 7.42931 5.95717 7.41105 6.58881 6.92886C7.49863 6.23435 7.57185 4.99846 6.73859 4.147C5.98925 3.38135 5.22606 2.62922 4.4653 1.87485C4.17533 1.58721 3.98903 1.27052 4.12155 0.846732C4.25226 0.428885 4.5692 0.248464 4.97729 0.180178C5.30402 0.125415 5.62911 0.0604635 5.95486 0L6.92708 0Z" transform="translate(4.4444447 4.4988437)" id="Fill-1" fill="#FFFFFF" stroke="none" />
      <path d="M0.72031 9.00887C0.312673 9.51855 0.13951 10.1268 0 10.7482L0 11.5956C0.0202759 11.6725 0.0449097 11.7486 0.0602831 11.8266C0.239256 12.7329 0.678911 13.4846 1.41599 14.044C2.91786 15.1839 4.8891 15.0413 6.25534 13.6811C9.0778 10.871 11.8898 8.05057 14.7056 5.23379C14.7523 5.18707 14.7915 5.13277 14.7962 5.12721C13.0779 3.40757 11.3785 1.70693 9.67277 0C9.65842 0.0133761 9.62065 0.0462412 9.58531 0.0815879C6.76175 2.90484 3.93801 5.7278 1.11639 8.55293C0.974455 8.6951 0.846021 8.8518 0.72031 9.00887ZM5.4725 10.7993C5.26066 11.0114 5.03648 11.191 4.84074 11.1837C4.34813 11.1798 4.07298 11.0156 3.90641 10.6942C3.73985 10.3729 3.76436 10.0515 3.97469 9.75302C4.03237 9.67131 4.10397 9.5985 4.17496 9.52738C5.93407 7.76622 7.69493 6.0067 9.45294 4.24439C9.73329 3.96331 10.0412 3.78948 10.4529 3.90726C11.0537 4.07921 11.3066 4.77683 10.9497 5.29008C10.887 5.38032 10.8086 5.461 10.7306 5.53914C8.97824 7.29298 7.22458 9.0453 5.4725 10.7993Z" transform="translate(4.4444146 20.745918)" id="Fill-4" fill="#FFFFFF" fill-rule="evenodd" stroke="none" />
      <path d="M11.3508 0C11.5872 0.165288 11.8446 0.308181 12.0554 0.500547C12.48 0.88804 12.8811 1.30051 13.2884 1.70613C13.7333 2.14946 13.7799 2.51342 13.4534 3.05119C12.5363 4.56112 11.6178 6.07014 10.6949 7.57665C10.2905 8.23684 9.65839 8.31177 9.10166 7.77351C8.95746 7.6341 8.8204 7.48755 8.64033 7.30377C6.59215 9.34432 4.56739 11.3615 2.54647 13.3749C1.65432 12.4897 0.811941 11.6538 0 10.8483C2.00182 8.85494 4.02719 6.83822 6.06995 4.80416C5.9155 4.64445 5.77838 4.51567 5.65632 4.37422C5.27368 3.93065 5.32919 3.32149 5.83114 3.01829C7.44947 2.04073 9.08336 1.08809 10.7123 0.127523C10.7982 0.0769102 10.8938 0.0421475 10.9848 0L11.3508 0Z" transform="translate(21.889929 4.4444447)" id="Fill-7" fill="#FFFFFF" stroke="none" />
    </g>
  </g>
</svg>