<svg xmlns="http://www.w3.org/2000/svg" width="46" height="46" viewBox="0 0 46 46">
  <g fill="none" fill-rule="evenodd" transform="translate(1 1)">
    <rect width="33" height="33" x="5.5" y="5.5" stroke="#73C9FF" stroke-width="2" rx="10" transform="rotate(-23 21.627 21.627)"/>
    <path fill="#73C9FF" d="M22.0012773,14 L19.6224258,18.714454 L14.2702415,19.4752219 L18.1443125,23.168854 L17.2333807,28.3642526 L22.0012773,25.9123081 L26.7693242,28.3642526 L25.8583424,23.168854 L29.7322881,19.4752219 L24.3801539,18.714454 L22.0012773,14 Z M16.5058074,15.7867449 L17.9139184,17.5688602 L18.8964053,16.7939535 L17.4881942,15.0118131 L16.5058074,15.7867449 Z M25.1380073,16.7993337 L26.1287842,17.563505 L27.5055132,15.7813646 L26.5148113,15.0171934 L25.1380073,16.7993337 Z M14,23.928721 L14.4342398,25.1015664 L16.6821532,24.2710053 L16.2479885,23.0980598 L14,23.928721 Z M27.3323232,24.3183515 L29.5803117,25.1177822 L30,23.9395316 L27.7520115,23.1401509 L27.3323232,24.3183515 Z M21.3755393,30 L22.6270905,30 L22.6270905,27.5926741 L21.3755393,27.5926741 L21.3755393,30 Z"/>
  </g>
</svg>
