<?xml version="1.0" encoding="utf-8"?>
<svg width="29px" height="24px" viewBox="0 0 29 24" version="1.1" xmlns:xlink="http://www.w3.org/1999/xlink" xmlns="http://www.w3.org/2000/svg">
  <desc>Created with Lunacy</desc>
  <path d="M18.3414 0.754938C17.1873 -0.0241069 15.6197 0.159999 14.6779 1.19831C13.5108 0.583695 12.0311 0.855566 11.1706 1.91758L0.62764 14.9313C-0.350391 16.1384 -0.165528 17.9174 1.04352 18.8969L6.56947 23.374C7.73539 24.3187 9.43622 24.1745 10.4344 23.0744C11.4861 23.6312 12.7938 23.4635 13.6709 22.6454C14.8676 23.4559 16.5112 23.2262 17.4368 22.0837L27.9797 9.06997C28.9577 7.86294 28.7731 6.08392 27.5641 5.10438L22.0379 0.627325C20.9348 -0.266471 19.3525 -0.188541 18.3414 0.754938ZM26.9999 8.27629C27.5414 7.60796 27.4385 6.62539 26.7702 6.08417L21.2442 1.60712C20.6856 1.15468 19.9053 1.15215 19.3507 1.55643C19.2402 1.63259 19.1409 1.72717 19.0518 1.83688L18.9106 2.0114L18.5139 2.50142L17.6642 3.54956L17.2675 4.03959L16.8706 4.52961L8.50863 14.8506C7.96892 15.5169 8.07233 16.503 8.73864 17.0428L11.7348 19.4702L12.2248 19.8671L12.7146 20.2641L13.4984 20.8991L13.9884 21.2959L14.2646 21.5198C14.3372 21.5786 14.4144 21.6315 14.4956 21.6714C15.143 22.0303 15.9758 21.8837 16.457 21.2901L26.9999 8.27629ZM10.7716 21.7929L10.7071 21.7405L10.217 21.3435L5.24567 17.3159C4.57734 16.7744 4.47444 15.7918 5.01415 15.1258L14.8953 2.92915L15.2923 2.43913L15.5574 2.11203C15.6018 2.05705 15.6502 2.00534 15.7009 1.95894C16.1916 1.49313 16.9301 1.40334 17.5165 1.72893L16.6847 2.75589L16.2877 3.24566L15.8908 3.73569L7.52884 14.0567C6.5508 15.264 6.73768 17.0448 7.94471 18.0226L10.9411 20.45L11.4309 20.8469L11.9209 21.2439L12.6616 21.8439C12.2548 22.1377 11.7305 22.2159 11.2604 22.059C11.0879 22.0035 10.9207 21.9135 10.7716 21.7929ZM1.60718 15.725C1.06596 16.3933 1.16911 17.3759 1.83719 17.9171L7.36339 22.3942C7.97472 22.8895 8.85213 22.8441 9.41151 22.314L4.45175 18.2957C3.2427 17.3161 3.05632 15.5389 4.03435 14.3319L13.8505 2.21568C13.2538 2.01468 12.5696 2.19399 12.1506 2.7115L1.60718 15.725ZM19.8995 8.27873C19.1268 14.4337 15.0439 15.0667 15.0439 15.0667C22.0798 15.6699 21.9873 8.59877 21.9873 8.59877L24.0008 9.15411L21.7797 3.95703L17.4688 8.44644L19.8995 8.27873ZM16.1317 12.696C16.4573 12.294 16.4772 11.7308 16.0046 11.348L14.9688 10.5089C14.4959 10.1258 13.9494 10.2623 13.6238 10.6643C13.2985 11.0658 13.278 11.629 13.7512 12.012L14.7867 12.8511C15.2593 13.2342 15.8063 13.0975 16.1317 12.696ZM15.7249 12.3661C15.5816 12.5427 15.3622 12.5659 15.1577 12.4002L14.1153 11.5556C13.9108 11.3901 13.8879 11.1705 14.0309 10.9939C14.1741 10.8171 14.3938 10.7942 14.5981 10.9599L15.6407 11.8042C15.8449 11.9699 15.8679 12.1893 15.7249 12.3661ZM14.4802 13.2298C14.9528 13.6129 14.9329 14.1761 14.6073 14.5778C14.2819 14.9793 13.7349 15.116 13.2623 14.7332L12.2268 13.8941C11.7536 13.5108 11.7741 12.9476 12.0994 12.5461C12.425 12.1441 12.9715 12.0077 13.4444 12.3908L14.4802 13.2298ZM13.6333 14.282C13.8378 14.4477 14.0572 14.4245 14.2005 14.2482C14.3435 14.0714 14.3205 13.8518 14.1162 13.6861L13.0736 12.8417C12.8694 12.676 12.6497 12.699 12.5064 12.8757C12.3635 13.0525 12.3864 13.272 12.5909 13.4374L13.6333 14.282ZM11.4913 14.1219C11.4787 14.1837 11.4497 14.2263 11.367 14.3282L10.7748 15.0593L11.2976 15.4828C11.2913 15.3599 11.341 15.1821 11.48 15.0106C11.6439 14.8081 11.8376 14.7037 12.0161 14.6848C12.3642 14.6485 12.6217 14.8086 12.8537 14.9963C13.1344 15.2238 13.2956 15.4144 13.3299 15.7435C13.3505 15.941 13.3021 16.1887 13.0862 16.4552C12.9021 16.6822 12.7178 16.8108 12.4769 16.8567C12.3024 16.8878 12.0999 16.858 11.9491 16.7362C11.8764 16.6772 11.8394 16.6098 11.8298 16.5362C11.8209 16.4658 11.8464 16.3917 11.8969 16.3294C11.9516 16.2621 11.9965 16.2353 12.0557 16.2257C12.1165 16.2149 12.1594 16.2184 12.2643 16.2515C12.4477 16.3085 12.5609 16.2681 12.6774 16.1241C12.7546 16.029 12.7881 15.9415 12.7773 15.8411C12.7627 15.6971 12.6451 15.5761 12.4875 15.4485C12.205 15.2197 11.9816 15.1703 11.799 15.3958C11.6981 15.5203 11.6684 15.6308 11.6875 15.7559C11.6966 15.8086 11.6984 15.856 11.6911 15.9077C11.6832 15.9559 11.6656 15.9957 11.6207 16.0512C11.57 16.1135 11.5155 16.1526 11.4338 16.1612C11.3524 16.1695 11.2664 16.1344 11.1884 16.0711L10.3088 15.3584C10.2429 15.3052 10.1597 15.2379 10.1479 15.1251C10.136 15.0125 10.2032 14.9294 10.2563 14.8637L10.2568 14.8631L10.9584 13.9971C11.0411 13.8952 11.0767 13.8581 11.1345 13.8329C11.2129 13.7993 11.3077 13.8099 11.3927 13.8785C11.4777 13.9474 11.5075 14.0379 11.4913 14.1219Z" id="Combined-Shape" fill="#394791" fill-rule="evenodd" stroke="none" />
</svg>