<?xml version="1.0" encoding="utf-8"?>
<svg width="18px" height="18px" viewBox="0 0 18 18" version="1.1" xmlns:xlink="http://www.w3.org/1999/xlink" xmlns="http://www.w3.org/2000/svg">
  <desc>Created with Lunacy</desc>
  <g id="musica-searcher-(1)">
    <path d="M0 0L18 0L18 18L0 18L0 0Z" id="Rectangle-5" fill="none" stroke="none" />
    <path d="M13.4406 10.7621L13.3724 10.5574C13.2141 10.0856 12.6936 9.59289 12.2121 9.46164L10.4391 8.97639C9.95764 8.84589 9.27214 9.02214 8.92039 9.37464L8.27764 10.0159C5.94664 9.38514 4.11664 7.55589 3.48739 5.22339L4.12789 4.58139C4.48039 4.23039 4.65589 3.54489 4.52539 3.06264L4.04239 1.28889C3.91114 0.808887 3.41689 0.286887 2.94514 0.128637L2.74264 0.0611373C2.26864 -0.0971127 1.59439 0.0626373 1.24264 0.415887L0.281886 1.37664C0.110136 1.54614 0.000635953 2.03439 0.000635953 2.03589C-0.031614 5.08614 1.16389 8.02314 3.32014 10.1809C5.47039 12.3304 8.39614 13.5251 11.4366 13.4981C11.4531 13.4981 11.9556 13.3909 12.1266 13.2199L13.0866 12.2591C13.4391 11.9089 13.5974 11.2331 13.4406 10.7621" transform="translate(2.25 2.25)" id="Fill-1" fill="#394791" stroke="none" />
  </g>
</svg>