<?xml version="1.0" encoding="utf-8"?>
<svg width="18px" height="18px" viewBox="0 0 18 18" version="1.1" xmlns:xlink="http://www.w3.org/1999/xlink" xmlns="http://www.w3.org/2000/svg">
  <desc>Created with Lunacy</desc>
  <defs>
    <path d="M6.97125 12.5295C7.1115 12.6713 7.30275 12.75 7.5015 12.75C7.701 12.75 7.8915 12.6713 8.0325 12.5303L13.8585 6.6945C15.3855 5.1645 15.3855 2.67525 13.8578 1.14525C13.1205 0.40725 12.1358 0 11.0873 0C10.0373 0 9.05325 0.40725 8.31525 1.146L7.5015 1.9605L6.68775 1.14525C5.9505 0.40725 4.96575 0 3.9165 0C2.86725 0 1.88325 0.40725 1.14525 1.14525C-0.38175 2.67525 -0.38175 5.1645 1.14525 6.6945L6.97125 12.5295ZM2.2065 2.20575C2.661 1.7505 3.2685 1.5 3.9165 1.5C4.56525 1.5 5.172 1.7505 5.6265 2.205L6.9705 3.552C7.2525 3.83475 7.7505 3.83475 8.0325 3.552L9.3765 2.20575C10.2855 1.296 11.8875 1.2945 12.7965 2.20575C13.7408 3.15075 13.7408 4.689 12.7965 5.6355L7.5015 10.9388L2.20725 5.6355C1.263 4.689 1.263 3.15075 2.2065 2.20575Z" transform="translate(1.498275 3)" id="path_1" />
    <clipPath id="mask_1">
      <use xlink:href="#path_1" />
    </clipPath>
  </defs>
  <g id="compare-copy">
    <path d="M6.97125 12.5295C7.1115 12.6713 7.30275 12.75 7.5015 12.75C7.701 12.75 7.8915 12.6713 8.0325 12.5303L13.8585 6.6945C15.3855 5.1645 15.3855 2.67525 13.8578 1.14525C13.1205 0.40725 12.1358 0 11.0873 0C10.0373 0 9.05325 0.40725 8.31525 1.146L7.5015 1.9605L6.68775 1.14525C5.9505 0.40725 4.96575 0 3.9165 0C2.86725 0 1.88325 0.40725 1.14525 1.14525C-0.38175 2.67525 -0.38175 5.1645 1.14525 6.6945L6.97125 12.5295ZM2.2065 2.20575C2.661 1.7505 3.2685 1.5 3.9165 1.5C4.56525 1.5 5.172 1.7505 5.6265 2.205L6.9705 3.552C7.2525 3.83475 7.7505 3.83475 8.0325 3.552L9.3765 2.20575C10.2855 1.296 11.8875 1.2945 12.7965 2.20575C13.7408 3.15075 13.7408 4.689 12.7965 5.6355L7.5015 10.9388L2.20725 5.6355C1.263 4.689 1.263 3.15075 2.2065 2.20575Z" transform="translate(1.498275 3)" id="🎨-Icon-Сolor" fill="#FF0000" fill-rule="evenodd" stroke="none" />
  </g>
</svg>