<svg xmlns="http://www.w3.org/2000/svg" width="459" height="136" viewBox="0 0 459 136">
  <path fill="#EAEAEA" d="M526.222222,100 L581.62963,190.666667 L581.62963,100 L611.851852,100 L611.851852,236 L581.62963,236 L526.222222,145.333333 L526.222222,236 L496,236 L496,100 L526.222222,100 Z M732.740741,100 L732.740741,125.185185 L667.259259,125.185185 L667.259259,155.407407 L722.666667,155.407407 L722.666667,180.592593 L667.259259,180.592593 L667.259037,210.814 L732.740741,210.814815 L732.740741,236 L637.037037,236 L637.037037,100 L732.740741,100 Z M843.555556,100 L843.555556,125.185185 L778.074074,125.185185 L778.074074,155.407407 L833.481481,155.407407 L833.481481,180.592593 L778.074074,180.592593 L778.074074,236 L747.851852,236 L747.851852,100 L843.555556,100 Z M954.37037,100 L954.37037,125.185185 L888.888889,125.185185 L888.888889,155.407407 L944.296296,155.407407 L944.296296,180.592593 L888.888889,180.592593 L888.888889,236 L858.666667,236 L858.666667,100 L954.37037,100 Z" transform="translate(-496 -100)"/>
</svg>
