

<svg xmlns="http://www.w3.org/2000/svg" width="445" height="137" viewBox="0 0 445 137">
  <path fill="#4F4F4F" d="M940.434171,100 L940.434171,236.184925 L916.098974,236.185094 C925.059297,233.413609 930.170854,227.806422 930.170854,220.217085 C930.170854,208.241206 917.037186,205.780905 905.821106,203.863317 C895.871357,202.126633 890.528643,201.511558 890.528643,197.109548 C890.528643,193.829146 894.146734,191.887437 900.176884,191.887437 C906.978048,191.887437 910.962127,193.540437 912.026192,198.836409 L912.080402,199.123618 L928.120603,199.123618 C927.638191,186.846231 915.252261,182.239196 900.924623,182.239196 C883.437186,182.239196 873.487437,188.076382 873.487437,198.41206 C873.487437,210.954774 888.020101,212.438191 899.21206,214.584925 C908.196985,216.333668 913.286432,217.141709 913.286432,221.652261 C913.286432,225.644221 908.920603,228.201005 901.877387,228.201005 C894.117166,228.201005 889.298894,225.819428 888.559694,219.700914 L888.526633,219.396985 L872.136683,219.396985 C872.295654,228.299329 878.196121,233.602761 886.689339,236.184233 L861.873206,236.184 L861.873367,183.782915 L844.759799,183.782915 L844.759799,210.966834 C844.759799,218.950754 842.01005,225.909548 831.155779,225.909548 C821.445057,225.909548 820.621773,220.70657 820.603345,214.173278 L820.603015,183.782915 L803.236181,183.782915 L803.236181,219.300503 C803.236181,227.833743 807.093504,233.453179 813.780287,236.185165 L773.350206,236.184 L773.350754,212.438191 C773.350754,202.921005 777.855979,195.809751 789.467221,195.652898 L789.861307,195.650251 C791.850024,195.649665 793.835014,195.812286 795.796315,196.136272 L796.530653,196.265327 L796.530653,182.866332 C795.289157,182.6752 794.035898,182.570426 792.779899,182.552764 C783.591585,182.552764 776.629365,186.515444 772.706714,193.157576 L772.506533,193.503518 L772.506533,183.782915 L756.116583,183.782915 L756.116206,236.184 L745.841206,236.184925 L745.841206,100 L940.434171,100 Z M845.483417,229.117588 L845.483206,236.184 L836.000184,236.18509 C839.639607,234.720949 842.692078,232.450032 845.213069,229.445145 L845.483417,229.117588 Z M526.247236,100 L582.00201,191.236181 L582.00201,100 L610.572864,100 L610.572864,236.184925 L580.856281,236.184925 L524.727638,144.755779 L524.727638,236.172864 L496,236.172864 L496,100 L526.247236,100 Z M732.502513,100 L732.502513,125.061307 L666.677387,125.061307 L666.677387,156.611055 L723.939698,156.611055 L723.939698,180.333668 L666.677387,180.333668 L666.677387,236.184925 L636.996985,236.184925 L636.996985,100 L732.502513,100 Z" opacity=".084" transform="translate(-496 -100)"/>
</svg>
