<?xml version="1.0" encoding="utf-8"?>
<svg width="18px" height="18px" viewBox="0 0 18 18" version="1.1" xmlns:xlink="http://www.w3.org/1999/xlink" xmlns="http://www.w3.org/2000/svg">
  <desc>Created with Lunacy</desc>
  <defs>
    <path d="M12.8808 11.6073L15.9363 14.6637C16.2882 15.0156 16.2882 15.5844 15.9363 15.9363C15.7608 16.1118 15.5304 16.2 15.3 16.2C15.0696 16.2 14.8392 16.1118 14.6637 15.9363L11.6073 12.8808C10.3887 13.8285 8.8614 14.4 7.2 14.4C3.2301 14.4 0 11.1699 0 7.2C0 3.2301 3.2301 0 7.2 0C11.1699 0 14.4 3.2301 14.4 7.2C14.4 8.8614 13.8285 10.3887 12.8808 11.6073ZM7.2 1.8C4.2219 1.8 1.8 4.2219 1.8 7.2C1.8 10.1781 4.2219 12.6 7.2 12.6C10.1781 12.6 12.6 10.1781 12.6 7.2C12.6 4.2219 10.1781 1.8 7.2 1.8Z" transform="translate(0.9 0.9)" id="path_1" />
    <clipPath id="mask_1">
      <use xlink:href="#path_1" />
    </clipPath>
  </defs>
  <g id="musica-searcher-(1)">
    <path d="M12.8808 11.6073L15.9363 14.6637C16.2882 15.0156 16.2882 15.5844 15.9363 15.9363C15.7608 16.1118 15.5304 16.2 15.3 16.2C15.0696 16.2 14.8392 16.1118 14.6637 15.9363L11.6073 12.8808C10.3887 13.8285 8.8614 14.4 7.2 14.4C3.2301 14.4 0 11.1699 0 7.2C0 3.2301 3.2301 0 7.2 0C11.1699 0 14.4 3.2301 14.4 7.2C14.4 8.8614 13.8285 10.3887 12.8808 11.6073ZM7.2 1.8C4.2219 1.8 1.8 4.2219 1.8 7.2C1.8 10.1781 4.2219 12.6 7.2 12.6C10.1781 12.6 12.6 10.1781 12.6 7.2C12.6 4.2219 10.1781 1.8 7.2 1.8Z" transform="translate(0.9 0.9)" id="🎨-Icon-Сolor" fill="#FF0000" fill-rule="evenodd" stroke="none" />
  </g>
</svg>