<?xml version="1.0" encoding="utf-8"?>
<svg width="273px" height="129px" viewBox="0 0 273 129" version="1.1" xmlns:xlink="http://www.w3.org/1999/xlink" xmlns="http://www.w3.org/2000/svg">
  <desc>Created with Lunacy</desc>
  <defs>
    <filter filterUnits="userSpaceOnUse" color-interpolation-filters="sRGB" id="filter_1">
      <feFlood flood-opacity="0" result="BackgroundImageFix" />
      <feColorMatrix in="SourceAlpha" type="matrix" values="0 0 0 0 0 0 0 0 0 0 0 0 0 0 0 0 0 0 127 0" />
      <feOffset dx="0" dy="1" />
      <feGaussianBlur stdDeviation="1.5" />
      <feColorMatrix type="matrix" values="0 0 0 0 0.5921569 0 0 0 0 0.5921569 0 0 0 0 0.5921569 0 0 0 0.3647059 0" />
      <feBlend mode="normal" in2="BackgroundImageFix" result="effect0_dropShadow" />
      <feBlend mode="normal" in="SourceGraphic" in2="effect0_dropShadow" result="shape" />
    </filter>
    <path d="M0 0L272 0L272 128L0 128L0 0Z" id="path_1" />
    <path d="M0 0L64 0L64 64L0 64L0 0Z" id="path_2" />
    <path d="M0 0L53.3333 0L53.3333 30.6667L0 30.6667L0 0Z" transform="translate(5.333333 28)" id="path_3" />
    <path d="M10.6667 21.3333C16.5577 21.3333 21.3333 16.5577 21.3333 10.6667C21.3333 4.77563 16.5577 0 10.6667 0C4.77563 0 0 4.77563 0 10.6667C0 16.5577 4.77563 21.3333 10.6667 21.3333Z" transform="translate(34.66667 29.33333)" id="path_4" />
    <path d="M5.33333 10.6667C8.27885 10.6667 10.6667 8.27885 10.6667 5.33333C10.6667 2.38781 8.27885 0 5.33333 0C2.38781 0 0 2.38781 0 5.33333C0 8.27885 2.38781 10.6667 5.33333 10.6667Z" transform="translate(40 34.66667)" id="path_5" />
    <path d="M10.6667 21.3333C16.5577 21.3333 21.3333 16.5577 21.3333 10.6667C21.3333 4.77563 16.5577 0 10.6667 0C4.77563 0 0 4.77563 0 10.6667C0 16.5577 4.77563 21.3333 10.6667 21.3333Z" transform="translate(8 5.333333)" id="path_6" />
    <path d="M5.33333 10.6667C8.27885 10.6667 10.6667 8.27885 10.6667 5.33333C10.6667 2.38781 8.27885 0 5.33333 0C2.38781 0 0 2.38781 0 5.33333C0 8.27885 2.38781 10.6667 5.33333 10.6667Z" transform="translate(13.33333 10.66667)" id="path_7" />
    <clipPath id="clip_1">
      <use xlink:href="#path_1" />
    </clipPath>
    <clipPath id="clip_2">
      <use xlink:href="#path_2" />
    </clipPath>
    <clipPath id="clip_3">
      <use xlink:href="#path_3" />
    </clipPath>
    <clipPath id="clip_4">
      <use xlink:href="#path_4" />
    </clipPath>
    <clipPath id="clip_5">
      <use xlink:href="#path_5" />
    </clipPath>
    <clipPath id="clip_6">
      <use xlink:href="#path_6" />
    </clipPath>
    <clipPath id="clip_7">
      <use xlink:href="#path_7" />
    </clipPath>
  </defs>
  <g id="Group" transform="translate(0.5 0.5)">
    <g id="Mask">
      <use stroke="none" fill="#FFFFFF" xlink:href="#path_1" />
      <g clip-path="url(#clip_1)">
        <use xlink:href="#path_1" fill="none" stroke="#394791" stroke-width="4" />
      </g>
    </g>
    <g id="Group-2" transform="translate(24 32)">
      <g id="+" transform="translate(94 14)">
        <path d="M18 36C27.9411 36 36 27.9411 36 18C36 8.05887 27.9411 0 18 0C8.05887 0 0 8.05887 0 18C0 27.9411 8.05887 36 18 36Z" id="Oval" fill="#000000" fill-opacity="0.143094316" stroke="none" />
        <path d="M6.001 0L5.999 0Q5.90061 0 5.8041 0.0191955Q5.7076 0.038391 5.6167 0.0760443Q5.5258 0.113698 5.44399 0.168362Q5.36217 0.223026 5.2926 0.2926Q5.22303 0.362175 5.16836 0.443985Q5.1137 0.525796 5.07604 0.616699Q5.03839 0.707602 5.0192 0.804105Q5 0.900607 5 0.999L5 5L0.999 5Q0.900607 5 0.804104 5.01919Q0.707602 5.03839 0.616699 5.07604Q0.525796 5.1137 0.443985 5.16836Q0.362174 5.22302 0.2926 5.2926Q0.223026 5.36217 0.168362 5.44398Q0.113698 5.52579 0.0760443 5.6167Q0.038391 5.7076 0.0191955 5.8041Q0 5.90061 0 5.999L0 6.001Q0 6.09939 0.0191955 6.19589Q0.038391 6.2924 0.0760443 6.3833Q0.113698 6.4742 0.168362 6.55601Q0.223026 6.63782 0.2926 6.7074Q0.362174 6.77697 0.443985 6.83164Q0.525796 6.8863 0.616699 6.92395Q0.707602 6.96161 0.804104 6.9808Q0.900607 7 0.999 7L5 7L5 11.001Q5 11.0994 5.0192 11.1959Q5.03839 11.2924 5.07604 11.3833Q5.1137 11.4742 5.16836 11.556Q5.22303 11.6378 5.2926 11.7074Q5.36217 11.777 5.44399 11.8316Q5.5258 11.8863 5.6167 11.924Q5.7076 11.9616 5.8041 11.9808Q5.90061 12 5.999 12L6.001 12Q6.09939 12 6.19589 11.9808Q6.2924 11.9616 6.3833 11.924Q6.4742 11.8863 6.55601 11.8316Q6.63782 11.777 6.7074 11.7074Q6.77697 11.6378 6.83164 11.556Q6.8863 11.4742 6.92395 11.3833Q6.96161 11.2924 6.9808 11.1959Q7 11.0994 7 11.001L7 7L11.001 7Q11.0994 7 11.1959 6.9808Q11.2924 6.96161 11.3833 6.92395Q11.4742 6.8863 11.556 6.83164Q11.6378 6.77697 11.7074 6.7074Q11.777 6.63782 11.8316 6.55601Q11.8863 6.4742 11.924 6.3833Q11.9616 6.2924 11.9808 6.19589Q12 6.09939 12 6.001L12 5.999Q12 5.90061 11.9808 5.8041Q11.9616 5.7076 11.924 5.6167Q11.8863 5.52579 11.8316 5.44398Q11.777 5.36217 11.7074 5.2926Q11.6378 5.22303 11.556 5.16836Q11.4742 5.1137 11.3833 5.07604Q11.2924 5.03839 11.1959 5.01919Q11.0994 5 11.001 5L7 5L7 0.999Q7 0.900607 6.9808 0.804105Q6.96161 0.707602 6.92395 0.616699Q6.8863 0.525796 6.83164 0.443985Q6.77697 0.362175 6.7074 0.2926Q6.63782 0.223026 6.55601 0.168362Q6.4742 0.113698 6.3833 0.0760443Q6.2924 0.038391 6.19589 0.0191955Q6.09939 0 6.001 0Z" transform="translate(12 12)" id="Combined-Shape" fill="#FFFFFF" fill-rule="evenodd" stroke="none" />
      </g>
      <g id="пароварка" transform="translate(160 0)">
        <g id="Rectangle">
          <g clip-path="url(#clip_2)">
            <use xlink:href="#path_2" fill="none" stroke="#394791" stroke-width="2" />
          </g>
        </g>
        <path d="M0 0L64 0L64 1.33333L0 1.33333L0 0Z" transform="translate(0 22.66667)" id="Rectangle" fill="#394791" stroke="none" />
        <g filter="url(#filter_1)">
          <g id="Rectangle">
            <use stroke="none" fill="#FFFFFF" fill-opacity="0.309803933" xlink:href="#path_3" />
            <g clip-path="url(#clip_3)">
              <use xlink:href="#path_3" fill="none" stroke="#394791" stroke-width="2" />
            </g>
          </g>
        </g>
        <path d="M0.999 0L15.001 0Q15.0994 0 15.1959 0.0191955Q15.2924 0.038391 15.3833 0.0760443Q15.4742 0.113698 15.556 0.168362Q15.6378 0.223026 15.7074 0.2926Q15.777 0.362175 15.8316 0.443985Q15.8863 0.525796 15.924 0.616699Q15.9616 0.707602 15.9808 0.804105Q16 0.900607 16 0.999L16 12.3343Q16 12.4327 15.9808 12.5292Q15.9616 12.6257 15.924 12.7166Q15.8863 12.8075 15.8316 12.8893Q15.777 12.9712 15.7074 13.0407Q15.6378 13.1103 15.556 13.165Q15.4742 13.2196 15.3833 13.2573Q15.2924 13.2949 15.1959 13.3141Q15.0994 13.3333 15.001 13.3333L0.999 13.3333Q0.900607 13.3333 0.804105 13.3141Q0.707602 13.2949 0.616699 13.2573Q0.525796 13.2196 0.443985 13.165Q0.362175 13.1103 0.2926 13.0407Q0.223026 12.9712 0.168362 12.8893Q0.113698 12.8075 0.0760443 12.7166Q0.038391 12.6257 0.0191955 12.5292Q0 12.4327 0 12.3343L0 0.999Q0 0.900607 0.0191955 0.804105Q0.038391 0.707602 0.0760443 0.616699Q0.113698 0.525796 0.168362 0.443985Q0.223026 0.362175 0.2926 0.2926Q0.362175 0.223026 0.443985 0.168362Q0.525796 0.113698 0.616699 0.0760443Q0.707602 0.038391 0.804105 0.0191955Q0.900607 0 0.999 0Z" transform="translate(24 5.333333)" id="Rectangle" fill="#979797" stroke="none" />
        <path d="M2.66667 5.33333C4.13943 5.33333 5.33333 4.13943 5.33333 2.66667C5.33333 1.19391 4.13943 0 2.66667 0C1.19391 0 0 1.19391 0 2.66667C0 4.13943 1.19391 5.33333 2.66667 5.33333Z" transform="translate(13.33333 5.333333)" id="Oval" fill="#394791" stroke="none" />
        <path d="M2.66667 5.33333C4.13943 5.33333 5.33333 4.13943 5.33333 2.66667C5.33333 1.19391 4.13943 0 2.66667 0C1.19391 0 0 1.19391 0 2.66667C0 4.13943 1.19391 5.33333 2.66667 5.33333Z" transform="translate(5.333333 5.333333)" id="Oval" fill="#394791" stroke="none" />
        <path d="M2.66667 5.33333C4.13943 5.33333 5.33333 4.13943 5.33333 2.66667C5.33333 1.19391 4.13943 0 2.66667 0C1.19391 0 0 1.19391 0 2.66667C0 4.13943 1.19391 5.33333 2.66667 5.33333Z" transform="translate(13.33333 13.33333)" id="Oval" fill="#394791" stroke="none" />
        <path d="M2.66667 5.33333C4.13943 5.33333 5.33333 4.13943 5.33333 2.66667C5.33333 1.19391 4.13943 0 2.66667 0C1.19391 0 0 1.19391 0 2.66667C0 4.13943 1.19391 5.33333 2.66667 5.33333Z" transform="translate(5.333333 13.33333)" id="Oval" fill="#394791" stroke="none" />
        <path d="M0.499 0L0.834332 0Q0.883479 0 0.931682 0.00958814Q0.979885 0.0191763 1.02529 0.0379841Q1.0707 0.0567919 1.11156 0.0840967Q1.15243 0.111401 1.18718 0.146154Q1.22193 0.180906 1.24924 0.22177Q1.27654 0.262635 1.29535 0.308041Q1.31416 0.353447 1.32374 0.40165Q1.33333 0.449853 1.33333 0.499L1.33333 12.8343Q1.33333 12.8835 1.32374 12.9317Q1.31416 12.9799 1.29535 13.0253Q1.27654 13.0707 1.24924 13.1116Q1.22193 13.1524 1.18718 13.1872Q1.15243 13.2219 1.11156 13.2492Q1.0707 13.2765 1.02529 13.2953Q0.979885 13.3142 0.931682 13.3237Q0.883479 13.3333 0.834332 13.3333L0.499 13.3333Q0.449853 13.3333 0.40165 13.3237Q0.353447 13.3142 0.308041 13.2953Q0.262635 13.2765 0.22177 13.2492Q0.180906 13.2219 0.146154 13.1872Q0.111401 13.1524 0.0840967 13.1116Q0.0567919 13.0707 0.0379841 13.0253Q0.0191763 12.9799 0.00958814 12.9317Q0 12.8835 0 12.8343L0 0.499Q0 0.449853 0.00958814 0.40165Q0.0191763 0.353447 0.0379841 0.308041Q0.0567919 0.262635 0.0840967 0.22177Q0.111401 0.180906 0.146154 0.146154Q0.180906 0.111401 0.22177 0.0840967Q0.262635 0.0567919 0.308041 0.0379841Q0.353447 0.0191763 0.40165 0.00958814Q0.449853 0 0.499 0L0.499 0Z" transform="translate(45.33333 5.333333)" id="Rectangle" fill="#394791" stroke="none" />
        <path d="M0.499 0L18.1677 0Q18.2168 0 18.265 0.00958814Q18.3132 0.0191763 18.3586 0.0379841Q18.404 0.0567919 18.4449 0.0840967Q18.4858 0.111401 18.5205 0.146154Q18.5553 0.180906 18.5826 0.22177Q18.6099 0.262635 18.6287 0.308041Q18.6475 0.353447 18.6571 0.40165Q18.6667 0.449853 18.6667 0.499L18.6667 0.834334Q18.6667 0.883481 18.6571 0.931684Q18.6475 0.979887 18.6287 1.02529Q18.6099 1.0707 18.5826 1.11156Q18.5553 1.15243 18.5205 1.18718Q18.4858 1.22193 18.4449 1.24924Q18.404 1.27654 18.3586 1.29535Q18.3132 1.31416 18.265 1.32375Q18.2168 1.33333 18.1677 1.33333L0.499 1.33333Q0.449853 1.33333 0.40165 1.32375Q0.353447 1.31416 0.308041 1.29535Q0.262635 1.27654 0.22177 1.24924Q0.180906 1.22193 0.146154 1.18718Q0.111401 1.15243 0.0840967 1.11156Q0.0567919 1.0707 0.0379841 1.02529Q0.0191763 0.979887 0.00958814 0.931684Q0 0.883481 0 0.834334L0 0.499Q0 0.449853 0.00958814 0.40165Q0.0191763 0.353447 0.0379841 0.308041Q0.0567919 0.262635 0.0840967 0.22177Q0.111401 0.180906 0.146154 0.146154Q0.180906 0.111401 0.22177 0.0840967Q0.262635 0.0567919 0.308041 0.0379841Q0.353447 0.0191763 0.40165 0.00958814Q0.449853 0 0.499 0L0.499 0Z" transform="translate(45.33333 17.33333)" id="Rectangle" fill="#394791" stroke="none" />
        <path d="M0 0L50.6667 0L50.6667 1.33333L0 1.33333L0 0Z" transform="translate(6.666667 30.66667)" id="Rectangle" fill="#979797" fill-opacity="0.8" stroke="none" />
        <path d="M0 0L50.6667 0L50.6667 1.33333L0 1.33333L0 0Z" transform="translate(6.666667 33.33333)" id="Rectangle" fill="#979797" fill-opacity="0.8" stroke="none" />
        <path d="M0 0L50.6667 0L50.6667 1.33333L0 1.33333L0 0Z" transform="translate(6.666667 36)" id="Rectangle" fill="#979797" fill-opacity="0.8" stroke="none" />
        <path d="M0 0L50.6667 0L50.6667 1.33333L0 1.33333L0 0Z" transform="translate(6.666667 38.66667)" id="Rectangle" fill="#979797" fill-opacity="0.8" stroke="none" />
        <path d="M0 0L50.6667 0L50.6667 1.33333L0 1.33333L0 0Z" transform="translate(6.666667 41.33333)" id="Rectangle" fill="#979797" fill-opacity="0.8" stroke="none" />
        <path d="M0 0L50.6667 0L50.6667 1.33333L0 1.33333L0 0Z" transform="translate(6.666667 44)" id="Rectangle" fill="#979797" fill-opacity="0.8" stroke="none" />
        <path d="M0 0L50.6667 0L50.6667 1.33333L0 1.33333L0 0Z" transform="translate(6.666667 46.66667)" id="Rectangle" fill="#979797" fill-opacity="0.8" stroke="none" />
        <path d="M0 0L50.6667 0L50.6667 1.33333L0 1.33333L0 0Z" transform="translate(6.666667 52)" id="Rectangle" fill="#979797" fill-opacity="0.8" stroke="none" />
        <path d="M0 0L50.6667 0L50.6667 1.33333L0 1.33333L0 0Z" transform="translate(6.666667 54.66667)" id="Rectangle" fill="#979797" fill-opacity="0.8" stroke="none" />
        <path d="M0 0L50.6667 0L50.6667 1.33333L0 1.33333L0 0Z" transform="translate(6.666667 49.33333)" id="Rectangle" fill="#979797" fill-opacity="0.8" stroke="none" />
      </g>
      <g id="элекрические">
        <g id="Rectangle">
          <g clip-path="url(#clip_2)">
            <use xlink:href="#path_2" fill="none" stroke="#394791" stroke-width="2" />
          </g>
        </g>
        <g id="Oval">
          <use stroke="none" fill="#394791" fill-opacity="0.298039228" xlink:href="#path_4" />
          <g clip-path="url(#clip_4)">
            <use xlink:href="#path_4" fill="none" stroke="#394791" stroke-width="2" />
          </g>
        </g>
        <g id="Oval">
          <use stroke="none" fill="#394791" fill-opacity="0.298039228" xlink:href="#path_5" />
          <g clip-path="url(#clip_5)">
            <use xlink:href="#path_5" fill="none" stroke="#394791" stroke-width="2" />
          </g>
        </g>
        <g id="Oval">
          <use stroke="none" fill="#394791" fill-opacity="0.298039228" xlink:href="#path_6" />
          <g clip-path="url(#clip_6)">
            <use xlink:href="#path_6" fill="none" stroke="#394791" stroke-width="2" />
          </g>
        </g>
        <g id="Oval">
          <use stroke="none" fill="#394791" fill-opacity="0.298039228" xlink:href="#path_7" />
          <g clip-path="url(#clip_7)">
            <use xlink:href="#path_7" fill="none" stroke="#394791" stroke-width="2" />
          </g>
        </g>
        <path d="M1.999 0L14.001 0Q14.0992 0 14.1969 0.00962573Q14.2947 0.0192515 14.391 0.0384102Q14.4873 0.057569 14.5813 0.0860763Q14.6753 0.114584 14.766 0.152165Q14.8567 0.189746 14.9433 0.236039Q15.0299 0.282333 15.1116 0.336892Q15.1932 0.391452 15.2692 0.453752Q15.3451 0.516052 15.4145 0.585494Q15.4839 0.654935 15.5462 0.730848Q15.6085 0.806761 15.6631 0.888415Q15.7177 0.970069 15.764 1.05668Q15.8103 1.14329 15.8478 1.23402Q15.8854 1.32474 15.9139 1.41872Q15.9424 1.5127 15.9616 1.60901Q15.9807 1.70533 15.9904 1.80306Q16 1.9008 16 1.999L16 3.33433Q16 3.43254 15.9904 3.53027Q15.9807 3.628 15.9616 3.72432Q15.9424 3.82063 15.9139 3.91461Q15.8854 4.00859 15.8478 4.09932Q15.8103 4.19004 15.764 4.27665Q15.7177 4.36326 15.6631 4.44492Q15.6085 4.52657 15.5462 4.60248Q15.4839 4.6784 15.4145 4.74784Q15.3451 4.81728 15.2692 4.87958Q15.1932 4.94188 15.1116 4.99644Q15.0299 5.051 14.9433 5.09729Q14.8567 5.14359 14.766 5.18117Q14.6753 5.21875 14.5813 5.24726Q14.4873 5.27576 14.391 5.29492Q14.2947 5.31408 14.1969 5.32371Q14.0992 5.33333 14.001 5.33333L1.999 5.33333Q1.9008 5.33333 1.80306 5.32371Q1.70533 5.31408 1.60901 5.29492Q1.5127 5.27576 1.41872 5.24726Q1.32474 5.21875 1.23402 5.18117Q1.14329 5.14359 1.05668 5.09729Q0.970069 5.051 0.888415 4.99644Q0.806761 4.94188 0.730848 4.87958Q0.654935 4.81728 0.585494 4.74784Q0.516052 4.6784 0.453752 4.60248Q0.391452 4.52657 0.336892 4.44492Q0.282333 4.36326 0.236039 4.27665Q0.189746 4.19004 0.152165 4.09932Q0.114584 4.00859 0.0860763 3.91461Q0.057569 3.82063 0.0384102 3.72432Q0.0192515 3.628 0.00962573 3.53027Q0 3.43254 0 3.33433L0 1.999Q0 1.9008 0.00962573 1.80306Q0.0192515 1.70533 0.0384102 1.60901Q0.057569 1.5127 0.0860763 1.41872Q0.114584 1.32474 0.152165 1.23402Q0.189746 1.14329 0.236039 1.05668Q0.282333 0.970069 0.336892 0.888415Q0.391452 0.806761 0.453752 0.730848Q0.516052 0.654935 0.585494 0.585494Q0.654935 0.516052 0.730848 0.453752Q0.806761 0.391452 0.888415 0.336892Q0.970069 0.282333 1.05668 0.236039Q1.14329 0.189746 1.23402 0.152165Q1.32474 0.114584 1.41872 0.0860763Q1.5127 0.057569 1.60901 0.0384102Q1.70533 0.0192515 1.80306 0.00962573Q1.9008 0 1.999 0L1.999 0Z" transform="translate(24 53.33333)" id="Rectangle" fill="#394791" stroke="none" />
        <path d="M9.33333 18.6667C14.488 18.6667 18.6667 14.488 18.6667 9.33333C18.6667 4.17868 14.488 0 9.33333 0C4.17868 0 0 4.17868 0 9.33333C0 14.488 4.17868 18.6667 9.33333 18.6667Z" transform="translate(8 32)" id="Oval" fill="#979797" stroke="none" />
        <path d="M8 16C12.4183 16 16 12.4183 16 8C16 3.58172 12.4183 0 8 0C3.58172 0 0 3.58172 0 8C0 12.4183 3.58172 16 8 16Z" transform="translate(40 8)" id="Oval" fill="#979797" stroke="none" />
      </g>
    </g>
  </g>
</svg>