<?xml version="1.0" encoding="utf-8"?>
<svg width="99px" height="104px" viewBox="0 0 99 104" version="1.1" xmlns:xlink="http://www.w3.org/1999/xlink" xmlns="http://www.w3.org/2000/svg">
  <desc>Created with Lunacy</desc>
  <path d="M94.2868 17.7515C94.5319 20.1368 93.2219 22.411 91.0356 23.3956C94.3388 24.306 98.8385 27.2971 98.8385 30.7564L98.8385 40.8222C98.9163 45.3012 95.5006 49.0698 91.0356 49.4314L91.0356 96.119C91.0543 100.449 87.5625 103.976 83.2327 104L15.6072 104C11.2774 103.976 7.78551 100.449 7.80424 96.119L7.80424 49.4314C3.33923 49.0698 -0.0764528 45.3012 0.00130133 40.8222L0.00130133 30.7564C0.00130133 27.2971 4.501 24.306 7.80424 23.3956C5.64107 22.384 4.33804 20.131 4.54001 17.7515C4.63288 14.0649 6.53459 10.6604 9.62493 8.64809C12.8453 6.24517 16.7945 5.02368 20.8091 5.18878C26.5514 5.23538 32.2125 6.54985 37.3878 9.03823L35.6191 5.89105C34.5534 4.0003 35.2004 1.60426 37.0731 0.50702C37.9753 -0.00419222 39.0439 -0.135176 40.0429 0.143001C41.0419 0.421178 41.8891 1.08563 42.3973 1.98958L49.4199 15.5927L59.249 1.65145C59.8446 0.801568 60.7566 0.226487 61.7801 0.0553193C62.8037 -0.115849 63.8532 0.131239 64.6929 0.741108C66.4489 2.01221 66.8538 4.46033 65.6006 6.22918L62.4248 10.3907C69.797 5.01279 72.8924 5.08321 76.586 5.16724C77.0546 5.1779 77.5329 5.18878 78.0307 5.18878C89.8964 5.18878 94.2868 11.7433 94.2868 17.7515ZM20.8091 12.9917C29.6705 13.2732 38.071 17.0068 44.218 23.3956L18.2082 23.3956C16.6815 23.5155 15.1753 22.985 14.0607 21.9348C12.9462 20.8847 12.327 19.4126 12.356 17.8816C12.356 15.9828 14.0804 12.9917 20.8091 12.9917ZM86.4839 17.7515C86.6317 19.3267 86.0546 20.8834 84.9158 21.9817C83.7771 23.08 82.2004 23.6003 80.6317 23.3956L54.6219 23.3956C60.7871 17.0328 69.1764 13.3042 78.0307 12.9917C84.6502 12.9917 86.4839 15.8528 86.4839 17.7515ZM44.218 31.1986L7.80424 31.1986L7.80424 41.6545L44.218 41.6545L44.218 31.1986ZM52.0209 41.6545L91.0356 41.6545L91.0356 31.1986L52.0209 31.1986L52.0209 41.6545ZM44.218 49.4314L15.6072 49.4314L15.6072 96.119L44.218 96.119L44.218 49.4314ZM83.2327 96.119L52.0209 96.119L52.0209 49.4314L83.2327 49.4314L83.2327 96.119Z" id="Gift" fill="#E6E6E6" fill-rule="evenodd" stroke="none" />
</svg>