<svg xmlns="http://www.w3.org/2000/svg" width="16" height="16" viewBox="0 0 16 16"><g><g><path fill="#666" d="M14 14c0 .825-.675 1.5-1.5 1.5S11 14.825 11 14s.675-1.5 1.5-1.5 1.5.675 1.5 1.5zM2.975.5L3.65 2h11.1c.45 0 .75.3.75.75 0 .15 0 .225-.15.375L12.65 8c-.225.45-.675.75-1.275.75h-5.55l-.675 1.275v.075c0 .075.075.15.15.15H14v1.5H5c-.825 0-1.5-.675-1.5-1.5 0-.225.075-.525.15-.75L4.7 7.7 2 2H.5V.5zM6.5 14c0 .825-.675 1.5-1.5 1.5s-1.5-.675-1.5-1.5.675-1.5 1.5-1.5 1.5.675 1.5 1.5z"/></g></g></svg>