<?xml version="1.0" encoding="utf-8"?>
<svg width="18px" height="18px" viewBox="0 0 18 18" version="1.1" xmlns:xlink="http://www.w3.org/1999/xlink" xmlns="http://www.w3.org/2000/svg">
  <desc>Created with Lunacy</desc>
  <g id="shopping-cart">
    <path d="M0 0L18 0L18 18L0 18L0 0Z" id="Rectangle-5" fill="none" stroke="none" />
    <path d="M13.0365 2.25C13.56 2.25 14.037 2.5155 14.3123 2.961C14.5875 3.4065 14.6123 3.95175 14.3783 4.4205L11.9213 9.33525C11.7938 9.5895 11.5343 9.75 11.25 9.75L4.5 9.75C4.16175 9.75 3.8655 9.5235 3.77625 9.19725L1.677 1.5L0.75 1.5C0.33525 1.5 0 1.164 0 0.75C0 0.336 0.33525 0 0.75 0L2.25 0C2.58825 0 2.8845 0.2265 2.97375 0.55275L3.4365 2.25L13.0365 2.25ZM10.7865 8.25L5.073 8.25L3.84525 3.75L13.0365 3.75L10.7865 8.25ZM4.125 13.5C4.746 13.5 5.25 12.9967 5.25 12.375C5.25 11.7533 4.746 11.25 4.125 11.25C3.504 11.25 3 11.7533 3 12.375C3 12.9967 3.504 13.5 4.125 13.5ZM12.75 12.375C12.75 12.9967 12.246 13.5 11.625 13.5C11.004 13.5 10.5 12.9967 10.5 12.375C10.5 11.7533 11.004 11.25 11.625 11.25C12.246 11.25 12.75 11.7533 12.75 12.375Z" transform="translate(1.5 2.25)" id="🎨-Icon-Сolor" fill="#394791" fill-rule="evenodd" stroke="none" />
  </g>
</svg>