<svg width="65" height="57" xmlns="http://www.w3.org/2000/svg"><path d="M.5.5h64v56H.5V.5z" fill="#394791"/><path d="M12.5 8.5h40v40h-40v-40z" fill="none"/><path d="M23.872 12.999c.452.097.917.156 1.355.298 2.183.711 3.592 2.193 4.239 4.381.35 1.181.3 2.377-.04 3.558-.055.195-.033.325.12.478 3.27 3.255 6.534 6.514 9.79 9.783.197.198.37.142.57.096 1.212-.275 2.432-.364 3.63.02 2.39.767 3.844 2.406 4.391 4.844.208.924.144 1.848-.076 2.763-.19.787-1.005 1.029-1.59.459-.79-.77-1.557-1.562-2.346-2.333-.85-.83-2.098-.764-2.798.135-.492.633-.514 1.584.022 2.188.576.65 1.211 1.248 1.822 1.867.241.245.492.48.728.73.548.583.314 1.377-.457 1.573a6.315 6.315 0 01-7.778-4.874c-.205-1.016-.124-2.033.126-3.033.07-.285.021-.468-.195-.683a2676.906 2676.906 0 01-9.62-9.609c-.205-.205-.379-.26-.657-.192-1.323.32-2.657.382-3.946-.11-2.24-.857-3.611-2.48-4.092-4.834-.057-.275-.085-.556-.126-.834v-.546c.075-.436.13-.876.23-1.306.18-.776.98-1.008 1.564-.463.244.227.473.471.71.705.628.616 1.234 1.255 1.891 1.837.6.531 1.563.513 2.194.03.91-.694.983-1.93.15-2.781-.75-.766-1.512-1.518-2.273-2.272-.29-.288-.477-.605-.344-1.028.13-.418.448-.599.856-.667.326-.055.652-.12.977-.18h.973z" fill="#FFF"/><path d="M17.665 38.255c-.408.51-.581 1.118-.72 1.74v.847c.02.076.044.153.06.23.179.907.618 1.659 1.355 2.218 1.502 1.14 3.474.997 4.84-.363 2.822-2.81 5.634-5.63 8.45-8.447a.901.901 0 00.09-.107l-5.123-5.127c-.014.013-.052.046-.087.082a22545.99 22545.99 0 00-8.47 8.47c-.141.143-.27.3-.395.457zm4.752 1.79c-.212.212-.436.392-.632.385-.492-.004-.768-.168-.934-.49a.857.857 0 01.068-.941 1.79 1.79 0 01.2-.226c1.76-1.76 3.52-3.52 5.278-5.283.28-.28.589-.455 1-.337.601.172.854.87.497 1.383-.063.09-.141.17-.219.25-1.752 1.753-3.506 3.505-5.258 5.26z" fill="#FFF" fill-rule="evenodd"/><path d="M45.74 12.944c.237.166.495.309.705.501.425.387.826.8 1.233 1.206.445.443.492.807.165 1.345-.917 1.51-1.835 3.019-2.758 4.525-.405.66-1.037.735-1.593.197-.145-.14-.282-.286-.462-.47l-6.094 6.071-2.546-2.526 6.07-6.044c-.155-.16-.292-.289-.414-.43-.382-.444-.327-1.053.175-1.356 1.618-.978 3.252-1.93 4.881-2.891.086-.05.182-.085.273-.128h.366z" fill="#FFF"/></svg>