<svg width="65" height="57" xmlns="http://www.w3.org/2000/svg"><path d="M.5.5h64v56H.5V.5z" fill="#394791"/><path d="M44.833 12.5c.361 0 .674.132.938.396.263.264.395.576.395.937v16a9.565 9.565 0 01-.697 3.552 13.272 13.272 0 01-1.73 3.125 19.31 19.31 0 01-2.458 2.657 28.635 28.635 0 01-2.636 2.146 33.003 33.003 0 01-2.52 1.614c-.875.507-1.497.85-1.865 1.031-.368.181-.663.32-.885.417a1.195 1.195 0 01-.542.125 1.2 1.2 0 01-.542-.125 22.58 22.58 0 01-.885-.417c-.368-.18-.99-.525-1.865-1.031a32.956 32.956 0 01-2.52-1.614 28.643 28.643 0 01-2.636-2.146 19.277 19.277 0 01-2.458-2.657 13.24 13.24 0 01-1.73-3.125 9.568 9.568 0 01-.697-3.552v-16c0-.36.132-.673.396-.937s.576-.396.938-.396h24zm-7.562 24.833c3.264-2.555 4.896-5.055 4.896-7.5V16.5h-9.333v23.687c1.653-.875 3.132-1.826 4.437-2.854z" fill="#FFF" fill-rule="evenodd"/></svg>