<svg width="65" height="57" viewBox="0 0 65 57" xmlns:xlink="http://www.w3.org/1999/xlink" xmlns="http://www.w3.org/2000/svg"><path d="M0 0h64v56H0V0z" transform="translate(.5 .5)" id="Rectangle" fill="#394791" stroke="none"/><g id="tools" transform="translate(12.5 8.5)"><g id="tools" stroke="none"><path d="M0 0h40v40H0V0z" id="Rectangle-4" fill="none"/><path d="M6.927 0c.453.097.918.156 1.355.298 2.184.712 3.592 2.193 4.24 4.381.349 1.182.3 2.377-.04 3.558-.055.195-.033.325.12.478 3.269 3.255 6.534 6.514 9.79 9.783.196.198.369.142.57.096 1.212-.275 2.431-.364 3.63.02 2.39.767 3.844 2.406 4.391 4.845.207.923.143 1.847-.076 2.762-.19.787-1.006 1.029-1.59.459-.79-.77-1.558-1.562-2.346-2.333-.85-.83-2.098-.764-2.798.135-.492.633-.514 1.584.022 2.188.576.65 1.21 1.248 1.821 1.867.242.245.493.48.729.731.547.582.314 1.377-.457 1.572a6.315 6.315 0 01-7.779-4.874c-.205-1.016-.124-2.033.126-3.033.071-.285.022-.468-.194-.683a2676.906 2676.906 0 01-9.621-9.609c-.204-.204-.378-.26-.657-.192-1.323.32-2.657.382-3.946-.11-2.24-.857-3.61-2.48-4.092-4.834C.07 7.23.041 6.949 0 6.671v-.546C.075 5.69.13 5.25.23 4.82c.18-.776.979-1.008 1.564-.463.244.227.472.471.71.705.627.616 1.233 1.256 1.89 1.837.6.531 1.563.513 2.195.03.91-.694.983-1.93.15-2.781-.75-.766-1.513-1.518-2.274-2.272-.29-.288-.476-.604-.343-1.028.13-.418.447-.599.855-.667.327-.055.652-.12.978-.18h.972z" transform="translate(4.444 4.499)" id="Fill-1" fill="#FFF"/><path d="M.72 9.009c-.407.51-.58 1.118-.72 1.74v.847c.02.076.045.153.06.23.18.907.619 1.659 1.356 2.218 1.502 1.14 3.473.997 4.84-.363 2.822-2.81 5.634-5.63 8.45-8.447.046-.047.085-.101.09-.107L9.673 0a1.85 1.85 0 00-.088.082c-2.823 2.823-5.647 5.646-8.469 8.47-.142.143-.27.3-.396.457zm4.753 1.79c-.212.212-.437.392-.632.385-.493-.004-.768-.168-.935-.49a.857.857 0 01.069-.941 1.79 1.79 0 01.2-.226c1.76-1.76 3.52-3.52 5.278-5.283.28-.28.588-.455 1-.337a.9.9 0 01.497 1.383c-.063.09-.141.171-.22.25L5.473 10.8z" transform="translate(4.444 20.746)" id="Fill-4" fill="#FFF" fill-rule="evenodd"/><path d="M11.35 0c.237.165.495.308.705.5.425.388.826.8 1.233 1.206.445.443.492.807.165 1.345-.917 1.51-1.835 3.02-2.758 4.526-.405.66-1.037.735-1.593.197-.145-.14-.282-.286-.462-.47l-6.094 6.07L0 10.849l6.07-6.044c-.155-.16-.292-.288-.414-.43-.382-.443-.327-1.053.175-1.356 1.618-.977 3.252-1.93 4.881-2.89.086-.051.182-.086.273-.128h.366z" transform="translate(21.89 4.444)" id="Fill-7" fill="#FFF"/></g></g></svg>