<svg xmlns="http://www.w3.org/2000/svg" width="46" height="46"><g fill="none" fill-rule="evenodd" transform="translate(1 1)"><rect width="33" height="33" x="5.5" y="5.5" stroke="#73C9FF" stroke-width="2" rx="10" transform="rotate(-23 21.627 21.627)"/><path fill="#73C9FF" d="M22.001 14l-2.379 4.714-5.352.761 3.874 3.694-.91 5.195L22 25.912l4.768 2.452-.91-5.195 3.873-3.694-5.352-.76L22.001 14zm-5.495 1.787l1.408 1.782.982-.775-1.408-1.782-.982.775zm8.632 1.012l.99.765 1.378-1.783-.991-.764-1.377 1.782zM14 23.93l.434 1.173 2.248-.831-.434-1.173-2.248.83zm13.332.39l2.248.799.42-1.178-2.248-.8-.42 1.178zM21.376 30h1.251v-2.407h-1.251V30z"/></g></svg>