<svg width="29" height="24" xmlns="http://www.w3.org/2000/svg"><path d="M18.341.755a2.824 2.824 0 00-3.663.443 2.827 2.827 0 00-3.507.72L.628 14.93a2.822 2.822 0 00.416 3.966l5.525 4.477c1.166.945 2.867.8 3.865-.3 1.052.557 2.36.39 3.237-.429a2.82 2.82 0 003.766-.561L27.98 9.07a2.822 2.822 0 00-.416-3.966L22.038.627a2.824 2.824 0 00-3.697.128zM27 8.276a1.56 1.56 0 00-.23-2.192l-5.526-4.477a1.557 1.557 0 00-2.192.23l-.141.174-.397.49-.85 1.049-.397.49-.396.49-8.362 10.32a1.563 1.563 0 00.23 2.193l2.996 2.427.49.397.49.397.783.635.49.397.277.224c.072.059.15.111.23.151.648.36 1.48.213 1.962-.38L27 8.275zM10.772 21.793l-.065-.052-.49-.398-4.971-4.027a1.559 1.559 0 01-.232-2.19l9.881-12.197.397-.49.265-.327a1.55 1.55 0 011.96-.383l-.832 1.027-.397.49-.397.49-8.362 10.32a2.824 2.824 0 00.416 3.967l2.996 2.427.49.397.49.397.74.6a1.557 1.557 0 01-1.89-.051zm-9.165-6.068a1.56 1.56 0 00.23 2.192l5.526 4.477c.612.496 1.49.45 2.049-.08l-4.96-4.018a2.82 2.82 0 01-.418-3.964l9.817-12.116a1.552 1.552 0 00-1.7.495L1.607 15.726zM19.9 8.279c-.773 6.155-4.856 6.788-4.856 6.788 7.036.603 6.943-6.468 6.943-6.468l2.014.555-2.221-5.197-4.311 4.49 2.43-.168zm-3.768 4.417c.325-.402.345-.965-.127-1.348l-1.036-.84c-.473-.382-1.02-.246-1.345.156-.325.402-.346.965.127 1.348l1.036.84c.472.382 1.02.245 1.345-.156zm-.407-.33c-.143.177-.363.2-.567.034l-1.043-.844c-.204-.166-.227-.385-.084-.562.143-.177.363-.2.567-.034l1.043.844c.204.166.227.385.084.562zm-1.245.864c.473.383.453.946.127 1.348-.325.401-.872.538-1.345.155l-1.035-.839c-.473-.383-.453-.946-.128-1.348.326-.402.873-.538 1.345-.155l1.036.839zm-.847 1.052c.205.166.424.143.568-.034.143-.177.12-.396-.085-.562l-1.042-.844c-.205-.166-.424-.143-.568.034-.143.177-.12.396.085.561l1.042.845zm-2.142-.16c-.012.062-.041.104-.124.206l-.592.731.523.424a.732.732 0 01.182-.472c.164-.203.358-.307.536-.326.348-.037.606.124.838.311.28.228.442.418.476.747.02.198-.028.446-.244.712-.184.227-.368.356-.61.402a.662.662 0 01-.527-.12.304.304 0 01-.12-.2.278.278 0 01.068-.208c.055-.067.1-.094.159-.103.06-.011.103-.008.208.026.184.056.297.016.413-.128.078-.095.111-.182.1-.283-.014-.144-.132-.265-.29-.393-.282-.228-.505-.278-.688-.052-.1.124-.13.235-.111.36.009.053.01.1.003.152a.286.286 0 01-.07.143.264.264 0 01-.187.11.345.345 0 01-.246-.09l-.88-.713c-.065-.053-.148-.12-.16-.233-.012-.113.055-.196.108-.261l.702-.867c.083-.102.119-.139.176-.164.079-.034.174-.023.259.046a.247.247 0 01.098.243z" fill="#979797" fill-rule="evenodd"/></svg>