<svg width="18" height="18" viewBox="0 0 18 18" xmlns:xlink="http://www.w3.org/1999/xlink" xmlns="http://www.w3.org/2000/svg"><g id="musica-searcher-(1)" stroke="none"><path d="M0 0h18v18H0V0z" id="Rectangle-5" fill="none"/><path d="M13.44 10.762l-.068-.205c-.158-.471-.678-.964-1.16-1.095l-1.773-.486c-.481-.13-1.167.046-1.519.399l-.642.64a6.81 6.81 0 01-4.79-4.792l.64-.642c.352-.35.528-1.036.397-1.518l-.483-1.774C3.912.809 3.417.287 2.945.129L2.743.06c-.474-.158-1.149.002-1.5.355l-.961.96c-.172.17-.281.658-.281.66a11.354 11.354 0 003.32 8.145 11.339 11.339 0 008.116 3.317c.016 0 .519-.107.69-.278l.96-.96c.352-.351.51-1.027.354-1.498" transform="translate(2.25 2.25)" id="Fill-1" fill="#394791"/></g></svg>