<svg width="18" height="18" xmlns="http://www.w3.org/2000/svg"><path d="M8.47 15.53a.75.75 0 001.061 0l5.826-5.835a3.933 3.933 0 000-5.55A3.89 3.89 0 0012.585 3a3.89 3.89 0 00-2.772 1.146L9 4.961l-.814-.816A3.891 3.891 0 005.415 3a3.89 3.89 0 00-2.771 1.145 3.934 3.934 0 000 5.55L8.47 15.53zM3.705 5.206a2.399 2.399 0 011.71-.706 2.4 2.4 0 011.71.705l1.344 1.347a.77.77 0 001.062 0l1.344-1.346c.909-.91 2.51-.912 3.42 0a2.43 2.43 0 010 3.43L9 13.939 3.706 8.636a2.431 2.431 0 01-.001-3.43z" fill="#394791" fill-rule="evenodd"/></svg>