<svg width="18" height="18" viewBox="0 0 18 18" xmlns:xlink="http://www.w3.org/1999/xlink" xmlns="http://www.w3.org/2000/svg"><defs><clipPath id="mask_1"><use xlink:href="#path_1"/></clipPath><path d="M6.971 12.53a.75.75 0 001.061 0l5.826-5.835a3.933 3.933 0 000-5.55A3.89 3.89 0 0011.088 0a3.89 3.89 0 00-2.773 1.146l-.813.815-.814-.816A3.891 3.891 0 003.917 0c-1.05 0-2.034.407-2.772 1.145a3.934 3.934 0 000 5.55l5.826 5.835zM2.207 2.206a2.399 2.399 0 011.71-.706 2.4 2.4 0 011.71.705L6.97 3.552a.77.77 0 001.062 0l1.344-1.346c.909-.91 2.51-.911 3.42 0a2.43 2.43 0 010 3.43L7.5 10.939 2.208 5.636a2.431 2.431 0 010-3.43z" transform="translate(1.498 3)" id="path_1"/></defs><g id="compare-copy"><path d="M6.971 12.53a.75.75 0 001.061 0l5.826-5.835a3.933 3.933 0 000-5.55A3.89 3.89 0 0011.088 0a3.89 3.89 0 00-2.773 1.146l-.813.815-.814-.816A3.891 3.891 0 003.917 0c-1.05 0-2.034.407-2.772 1.145a3.934 3.934 0 000 5.55l5.826 5.835zM2.207 2.206a2.399 2.399 0 011.71-.706 2.4 2.4 0 011.71.705L6.97 3.552a.77.77 0 001.062 0l1.344-1.346c.909-.91 2.51-.911 3.42 0a2.43 2.43 0 010 3.43L7.5 10.939 2.208 5.636a2.431 2.431 0 010-3.43z" transform="translate(1.498 3)" id="๐จ-Icon-ะกolor" fill="red" fill-rule="evenodd" stroke="none"/></g></svg>