<svg xmlns="http://www.w3.org/2000/svg" width="445" height="137"><path fill="#4F4F4F" d="M444.434 0v136.185H420.1c8.96-2.771 14.072-8.379 14.072-15.968 0-11.976-13.134-14.436-24.35-16.354-9.95-1.736-15.292-2.351-15.292-6.753 0-3.28 3.618-5.223 9.648-5.223 6.801 0 10.785 1.653 11.85 6.95l.053.287h16.04c-.482-12.278-12.868-16.885-27.195-16.885-17.488 0-27.438 5.837-27.438 16.173 0 12.543 14.533 14.026 25.725 16.173 8.985 1.749 14.074 2.557 14.074 7.067 0 3.992-4.365 6.549-11.409 6.549-7.76 0-12.578-2.382-13.317-8.5l-.033-.304h-16.39c.159 8.902 6.06 14.206 14.552 16.787h-24.816V83.783H348.76v27.184c0 7.984-2.75 14.943-13.604 14.943-9.71 0-10.534-5.203-10.553-11.737v-30.39h-17.367V119.3c0 8.533 3.858 14.152 10.544 16.884l-40.43-.001v-23.746c0-9.517 4.506-16.628 16.117-16.785l.394-.003c1.989 0 3.974.162 5.935.486l.735.13v-13.4a27.16 27.16 0 00-3.751-.313c-9.188 0-16.15 3.962-20.073 10.605l-.2.346v-9.721h-16.39v52.401H249.84V0h194.593zm-94.95 129.118v7.066l-9.484.001c3.64-1.464 6.692-3.735 9.213-6.74l.27-.327zM30.246 0l55.755 91.236V0h28.57v136.185H84.857l-56.128-91.43v91.418H0V0h30.247zm206.256 0v25.061h-65.826v31.55h57.263v23.723h-57.263v55.85h-29.68V0h95.506z" opacity=".084"/></svg>