<svg xmlns="http://www.w3.org/2000/svg" width="123" height="48" viewBox="0 0 123 48"><g fill="none" fill-rule="evenodd"><path fill="#4F4F4F" fill-rule="nonzero" d="M0 0h6l11 18V0h6v27h-6L6 9v18H0zm47 0v5H34v6h11v5H34v6h13v5H28V0zm22 5H56v6h11v5H56v11h-6V0h19zm22 0H78v6h11v5H78v11h-6V0h19z"/><path fill="#394791" d="M107 0l16 48H91l16-48zm-.61 35.19l-11.916 6.244-1.782 5.347h.167l13.531-7.094V35.19zm1.218 5.874v5.716h10.904l-10.904-5.716zm0-5.875v4.498l13.532 7.093h.169l-1.783-5.345-11.918-6.246zm-1.218 5.875L95.487 46.78h10.903v-5.716zm1.218-11.752v4.498l11.362 5.956-1.817-5.45-9.545-5.004zm-1.218.001l-9.543 5.001-1.817 5.451 11.36-5.955v-4.497zm0-5.876l-7.17 3.757-1.817 5.451 8.987-4.71v-4.498zm1.218 0v4.497l8.989 4.711-1.817-5.45-7.172-3.759zm0-5.877v4.497l6.616 3.47-1.818-5.454-4.798-2.513zm-1.218 0l-4.797 2.513-1.817 5.452 6.614-3.467V17.56zm1.218-5.877v4.498l4.242 2.225-1.818-5.453-2.424-1.27zm-1.218 0l-2.424 1.27-1.817 5.452 4.241-2.223v-4.499zm0-6.004l-1.868 5.604 1.868-.979V5.68zm1.218 0v4.625l1.868.98-1.868-5.605zM121.171 27v1.586l1.122-1.121.242.242-1.122 1.121h1.588v.343h-1.588l1.122 1.122-.241.242-1.123-1.122V31h-.342v-1.588l-1.122 1.123-.242-.242 1.122-1.122H119v-.342l1.587-.001-1.122-1.121.242-.242 1.122 1.121V27h.342zM93 23a2 2 0 110 4.001A2 2 0 0193 23zm27-4a1 1 0 110 2 1 1 0 010-2zM97.172 9v1.586l1.122-1.121.242.242-1.122 1.121h1.588v.343h-1.588l1.122 1.122-.241.242-1.123-1.122V13h-.342v-1.588l-1.122 1.123-.242-.242 1.122-1.122H95v-.342l1.587-.001-1.122-1.121.242-.242 1.122 1.121V9h.342zM114.5 8a1.5 1.5 0 110 3 1.5 1.5 0 010-3zm5.757-8l-.001 2.381L121.94.697l.363.363-1.685 1.683h2.383v.513h-2.382l1.684 1.684-.363.362-1.684-1.684.001 2.382h-.513V3.618l-1.684 1.684-.362-.362 1.682-1.684H117v-.513h2.381l-1.683-1.683.363-.363 1.683 1.684V0h.513zM96 1a1 1 0 110 2 1 1 0 010-2z"/><path fill="#394791" fill-rule="nonzero" d="M2.825 34.044c1.191 0 1.862.668 1.862 1.823 0 1.156-.68 1.807-1.862 1.807H0v-6.098h4.151v.702H.801v1.766h2.024zm-.263.702H.8v2.226h1.76c.886 0 1.327-.36 1.327-1.105s-.434-1.121-1.329-1.121h.003zm6.445 2.93H6.353v-6.1h.799v2.475h1.855c1.191 0 1.862.659 1.862 1.816 0 1.158-.68 1.81-1.862 1.81zm-.273-2.93H7.152v2.226h1.582c.885 0 1.327-.36 1.327-1.105s-.432-1.121-1.327-1.121zm3.69-3.17v6.1h-.798v-6.1h.799zm6.064.702h-2.033v5.398h-.798v-5.398h-2.034v-.702h4.865zm6.515 2.296c0 1.79-.979 3.247-2.894 3.247s-2.895-1.49-2.895-3.263c0-1.901 1.132-3.136 2.895-3.136 1.867.01 2.894 1.336 2.894 3.152zm-5 .044c0 1.524.825 2.51 2.108 2.51 1.284 0 2.094-.993 2.094-2.51s-.825-2.485-2.11-2.485c-1.428 0-2.092 1.182-2.092 2.485zm9.115-3.042c1.004 0 1.93.403 1.93 1.525a1.365 1.365 0 01-.892 1.31c.747.17 1.165.735 1.165 1.54 0 1.405-1.139 1.723-2.297 1.723h-2.491v-6.098h2.585zm-1.801 2.613h1.447c.68 0 1.498-.051 1.498-.965 0-.914-.707-.965-1.421-.965h-1.515l-.01 1.93zm0 2.81h1.599c.808 0 1.599-.051 1.599-1.122 0-1.071-.926-1.054-1.734-1.054h-1.462l-.002 2.176zm10.478.677h-.89l-.673-1.867h-2.545l-.69 1.867h-.851l2.38-6.097h.902l2.367 6.097zm-2.832-5.328l-1.047 2.817h2.074l-1.027-2.817zm4.243 5.328h-.987l2.024-2.629c-.943-.128-1.505-.702-1.505-1.722 0-1.148.723-1.746 1.912-1.746h2.603v6.097h-.8v-2.605h-1.25l-1.997 2.605zm3.246-5.415h-1.531c-.886 0-1.378.316-1.378 1.062 0 .745.483 1.06 1.378 1.06h1.531v-2.122zm9.34.017h-2.034v5.398h-.793v-5.398h-2.034v-.702h4.866zm5.398 0h-3.401v1.911h3.174v.677h-3.174v2.106h3.437v.702h-4.228v-6.098h4.192zm3.905 2.253l2.128 3.136h-.965l-1.633-2.511-1.689 2.511h-.919l2.135-3.136-2-2.955h.965l1.522 2.347 1.575-2.347h.91zm8.146 3.145h-.799v-2.853h-3.198v2.853h-.799v-6.1h.799v2.545h3.198v-2.545h.799zm1.869-6.1h.798v5.165h.017l2.969-5.165h1.014v6.1h-.799v-5.183h-.017l-2.971 5.183h-1.004zm9.033 2.451l2.653 3.649h-1.027l-2.195-3.099-1.004.965v2.142h-.798v-6.108h.798v3.023l3.071-3.023h1.047zm8.741 3.649h-.892l-.675-1.869h-2.54l-.69 1.867h-.85l2.391-6.098h.902l2.354 6.1zm-2.831-5.328l-1.047 2.817h2.07l-1.023-2.817z"/><path fill="#4F4F4F" fill-rule="nonzero" d="M.369 41.625h.801v5.169h.017l2.969-5.164h1.013v6.097h-.801v-5.183h-.026l-2.97 5.181H.369zm11.235 6.238c-1.447 0-2.508-.676-2.508-2.15h.774c.034 1.105.835 1.491 1.804 1.491.835 0 1.489-.497 1.489-1.276 0-.89-.724-1.07-1.532-1.07-.171 0-.417 0-.545.016v-.668c.135.017.407.017.545.017.765 0 1.32-.266 1.32-1.098 0-.755-.62-.977-1.3-.977-.893 0-1.412.36-1.506 1.243h-.777c.051-1.31 1.02-1.91 2.306-1.91 1.165 0 2.075.496 2.075 1.644a1.447 1.447 0 01-1.004 1.327v.026c.71.12 1.225.744 1.206 1.465.01.754-.646 1.92-2.347 1.92zm10.961-.138v-6.1h3.98v.702h-3.182v5.396zm11.788-5.396h-3.394v1.911h3.172v.677h-3.172v2.106h3.437v.702h-4.245v-6.1h4.192zm6.471-.704c1.158 0 2.017.482 2.017 1.756 0 1.377-.886 1.84-2.068 1.84h-1.642v2.502h-.799v-6.098h2.492zm-1.688 2.92h1.539c.774 0 1.37-.214 1.37-1.113 0-.965-.69-1.112-1.481-1.112h-1.428v2.226zm8.729-2.92l1.946 5.169 1.879-5.164h1.115v6.097h-.758v-5.091l-1.895 5.087h-.705l-1.929-5.087v5.087h-.765v-6.098zm14.145 6.1h-.893l-.673-1.867h-2.555l-.69 1.867h-.848l2.38-6.098h.902l2.376 6.098zm-2.833-5.328l-1.046 2.817h2.074l-1.028-2.817zm11.173 5.328h-.798v-2.861h-3.199v2.851h-.798v-6.09h.798v2.545h3.199v-2.545h.798zm4.286-6.1h.799v5.169h.017l2.969-5.164h1.013v6.097h-.801v-5.183h-.017l-2.976 5.181h-1.004zm9.082 0h.798v5.169h.017l2.969-5.164h1.021v6.097h-.799v-5.183h-.017l-2.976 5.181h-1.004z"/></g></svg>