<svg width="18" height="18" viewBox="0 0 18 18" xmlns:xlink="http://www.w3.org/1999/xlink" xmlns="http://www.w3.org/2000/svg"><defs><clipPath id="mask_1"><use xlink:href="#path_1"/></clipPath><path d="M12.88 11.607l3.056 3.057a.899.899 0 11-1.272 1.272l-3.057-3.055A7.157 7.157 0 017.2 14.4C3.23 14.4 0 11.17 0 7.2S3.23 0 7.2 0s7.2 3.23 7.2 7.2a7.157 7.157 0 01-1.52 4.407zM7.2 1.8a5.405 5.405 0 00-5.4 5.4c0 2.978 2.422 5.4 5.4 5.4s5.4-2.422 5.4-5.4-2.422-5.4-5.4-5.4z" transform="translate(.9 .9)" id="path_1"/></defs><g id="musica-searcher-(1)"><path d="M12.88 11.607l3.056 3.057a.899.899 0 11-1.272 1.272l-3.057-3.055A7.157 7.157 0 017.2 14.4C3.23 14.4 0 11.17 0 7.2S3.23 0 7.2 0s7.2 3.23 7.2 7.2a7.157 7.157 0 01-1.52 4.407zM7.2 1.8a5.405 5.405 0 00-5.4 5.4c0 2.978 2.422 5.4 5.4 5.4s5.4-2.422 5.4-5.4-2.422-5.4-5.4-5.4z" transform="translate(.9 .9)" id="๐จ-Icon-ะกolor" fill="red" fill-rule="evenodd" stroke="none"/></g></svg>