<svg width="273" height="129" xmlns:xlink="http://www.w3.org/1999/xlink" xmlns="http://www.w3.org/2000/svg"><defs><clipPath id="h"><use xlink:href="#a"/></clipPath><clipPath id="i"><use xlink:href="#b"/></clipPath><clipPath id="k"><use xlink:href="#c"/></clipPath><clipPath id="l"><use xlink:href="#d"/></clipPath><clipPath id="m"><use xlink:href="#e"/></clipPath><clipPath id="n"><use xlink:href="#f"/></clipPath><clipPath id="o"><use xlink:href="#g"/></clipPath><path d="M0 0h272v128H0V0z" id="a"/><path d="M0 0h64v64H0V0z" id="b"/><path d="M0 0h53.333v30.667H0V0z" transform="translate(5.333 28)" id="c"/><path d="M10.667 21.333c5.89 0 10.666-4.775 10.666-10.666S16.558 0 10.667 0 0 4.776 0 10.667c0 5.89 4.776 10.666 10.667 10.666z" transform="translate(34.667 29.333)" id="d"/><path d="M5.333 10.667A5.333 5.333 0 105.333 0a5.333 5.333 0 000 10.667z" transform="translate(40 34.667)" id="e"/><path d="M10.667 21.333c5.89 0 10.666-4.775 10.666-10.666S16.558 0 10.667 0 0 4.776 0 10.667c0 5.89 4.776 10.666 10.667 10.666z" transform="translate(8 5.333)" id="f"/><path d="M5.333 10.667A5.333 5.333 0 105.333 0a5.333 5.333 0 000 10.667z" transform="translate(13.333 10.667)" id="g"/><filter filterUnits="userSpaceOnUse" color-interpolation-filters="sRGB" id="j"><feFlood flood-opacity="0" result="BackgroundImageFix"/><feColorMatrix in="SourceAlpha" values="0 0 0 0 0 0 0 0 0 0 0 0 0 0 0 0 0 0 127 0"/><feOffset dy="1"/><feGaussianBlur stdDeviation="1.5"/><feColorMatrix values="0 0 0 0 0.5921569 0 0 0 0 0.5921569 0 0 0 0 0.5921569 0 0 0 0.3647059 0"/><feBlend in2="BackgroundImageFix" result="effect0_dropShadow"/><feBlend in="SourceGraphic" in2="effect0_dropShadow" result="shape"/></filter></defs><g transform="translate(.5 .5)"><use fill="#FFF" xlink:href="#a"/><g clip-path="url(#h)"><use xlink:href="#a" fill="none" stroke="#394791" stroke-width="4"/></g></g><path d="M136.5 82.5c9.941 0 18-8.059 18-18s-8.059-18-18-18-18 8.059-18 18 8.059 18 18 18z" fill-opacity=".143"/><path d="M136.501 58.5h-.002q-.098 0-.195.02-.096.018-.187.056-.091.038-.173.092-.082.055-.151.125-.07.07-.125.151-.054.082-.092.173-.038.09-.057.187-.019.097-.019.195V63.5h-4.001q-.098 0-.195.02-.096.018-.187.056-.091.038-.173.092-.082.055-.151.125-.07.07-.125.151-.054.082-.092.173-.038.09-.057.187-.019.097-.019.195v.002q0 .098.02.195.018.096.056.187.038.091.092.173.055.082.125.151.07.07.151.125.082.054.173.092.09.038.187.057.097.019.195.019h4.001v4.001q0 .098.02.195.018.096.056.187.038.091.092.173.055.082.125.151.07.07.151.125.082.054.173.092.09.038.187.057.097.019.195.019h.002q.098 0 .195-.02.096-.018.187-.056.091-.038.173-.092.082-.055.151-.125.07-.07.125-.151.054-.082.092-.173.038-.09.057-.187.019-.097.019-.195V65.5h4.001q.098 0 .195-.02.096-.018.187-.056.091-.038.173-.092.082-.055.151-.125.07-.07.125-.151.054-.082.092-.173.038-.09.057-.187.019-.097.019-.195v-.002q0-.098-.02-.195-.018-.096-.056-.187-.038-.091-.092-.173-.055-.082-.125-.151-.07-.07-.151-.125-.082-.054-.173-.092-.09-.038-.187-.057-.097-.019-.195-.019H137.5v-4.001q0-.098-.02-.195-.018-.096-.056-.187-.038-.091-.092-.173-.055-.082-.125-.151-.07-.07-.151-.125-.082-.054-.173-.092-.09-.038-.187-.057-.097-.019-.195-.019z" fill="#FFF" fill-rule="evenodd"/><g clip-path="url(#i)" transform="translate(184.5 32.5)"><use xlink:href="#b" fill="none" stroke="#394791" stroke-width="2"/></g><path d="M184.5 55.167h64V56.5h-64v-1.333z" fill="#394791"/><g filter="url(#j)" transform="translate(184.5 32.5)"><use fill="#FFF" fill-opacity=".31" xlink:href="#c"/><g clip-path="url(#k)"><use xlink:href="#c" fill="none" stroke="#394791" stroke-width="2"/></g></g><path d="M209.499 37.833h14.002q.098 0 .195.02.096.019.187.056.091.038.173.093.082.054.151.124.07.07.125.151.054.082.092.173.038.09.057.187.019.097.019.195v11.336q0 .098-.02.195-.018.096-.056.187-.038.09-.092.173-.055.082-.125.151-.07.07-.151.124-.082.055-.173.093-.09.037-.187.056-.097.02-.195.02h-14.002q-.098 0-.195-.02-.096-.019-.187-.056-.091-.038-.173-.093-.082-.054-.151-.124-.07-.07-.125-.151-.054-.082-.092-.173-.038-.091-.057-.187-.019-.097-.019-.195V38.832q0-.098.02-.195.018-.096.056-.187.038-.09.092-.173.055-.081.125-.151.07-.07.151-.124.082-.055.173-.093.09-.037.187-.056.097-.02.195-.02z" fill="#979797"/><path d="M200.5 43.167a2.667 2.667 0 100-5.334 2.667 2.667 0 000 5.334zm-8 0a2.667 2.667 0 100-5.334 2.667 2.667 0 000 5.334zm8 8a2.667 2.667 0 100-5.334 2.667 2.667 0 000 5.334zm-8 0a2.667 2.667 0 100-5.334 2.667 2.667 0 000 5.334zm37.832-13.334h.336q.049 0 .097.01t.094.028q.045.02.086.046.04.028.076.062.034.035.062.076.027.041.046.086.018.046.028.094.01.048.01.097v12.336q0 .049-.01.097t-.028.094q-.02.045-.046.086-.028.04-.062.076-.035.034-.076.062-.041.027-.086.046-.046.019-.094.028-.048.01-.097.01h-.336q-.049 0-.097-.01t-.094-.028q-.045-.02-.086-.046-.04-.028-.076-.062-.034-.035-.062-.076-.027-.041-.046-.086-.018-.046-.028-.094-.01-.048-.01-.097V38.332q0-.049.01-.097t.028-.094q.02-.045.046-.086.028-.04.062-.076.035-.034.076-.062.041-.027.086-.046.046-.018.094-.028.048-.01.097-.01z" fill="#394791"/><path d="M230.332 49.833h17.669q.05 0 .097.01.049.01.094.028.045.02.086.046.041.028.076.062.035.035.062.076.027.041.046.086.019.046.028.094.01.048.01.097v.336q0 .049-.01.097t-.028.094q-.019.045-.046.086-.027.04-.062.076-.035.034-.076.062-.04.027-.086.046-.045.018-.094.028-.048.01-.097.01h-17.669q-.049 0-.097-.01t-.094-.028q-.045-.02-.086-.046-.04-.028-.076-.062-.034-.035-.062-.076-.027-.041-.046-.086-.018-.046-.028-.094-.01-.048-.01-.097v-.336q0-.049.01-.097t.028-.094q.02-.045.046-.086.028-.04.062-.076.035-.034.076-.062.041-.027.086-.046.046-.018.094-.028.048-.01.097-.01z" fill="#394791"/><path d="M191.167 63.167h50.666V64.5h-50.666v-1.333zm0 2.666h50.666v1.334h-50.666v-1.334zm0 2.667h50.666v1.333h-50.666V68.5zm0 2.667h50.666V72.5h-50.666v-1.333zm0 2.666h50.666v1.334h-50.666v-1.334zm0 2.667h50.666v1.333h-50.666V76.5zm0 2.667h50.666V80.5h-50.666v-1.333zm0 5.333h50.666v1.333h-50.666V84.5zm0 2.667h50.666V88.5h-50.666v-1.333zm0-5.334h50.666v1.334h-50.666v-1.334z" fill="#979797" fill-opacity=".8"/><g clip-path="url(#i)" transform="translate(24.5 32.5)"><use xlink:href="#b" fill="none" stroke="#394791" stroke-width="2"/></g><g transform="translate(24.5 32.5)"><use fill="#394791" fill-opacity=".298" xlink:href="#d"/><g clip-path="url(#l)"><use xlink:href="#d" fill="none" stroke="#394791" stroke-width="2"/></g></g><g transform="translate(24.5 32.5)"><use fill="#394791" fill-opacity=".298" xlink:href="#e"/><g clip-path="url(#m)"><use xlink:href="#e" fill="none" stroke="#394791" stroke-width="2"/></g></g><g transform="translate(24.5 32.5)"><use fill="#394791" fill-opacity=".298" xlink:href="#f"/><g clip-path="url(#n)"><use xlink:href="#f" fill="none" stroke="#394791" stroke-width="2"/></g></g><g transform="translate(24.5 32.5)"><use fill="#394791" fill-opacity=".298" xlink:href="#g"/><g clip-path="url(#o)"><use xlink:href="#g" fill="none" stroke="#394791" stroke-width="2"/></g></g><path d="M50.499 85.833h12.002q.098 0 .196.01t.194.029q.096.019.19.047.094.029.185.066.09.038.177.084.087.047.169.101.081.055.157.117.076.062.146.132.069.07.131.145.063.076.117.158.055.081.101.168.046.087.084.177.037.091.066.185.028.094.048.19.019.097.028.194.01.098.01.196v1.336q0 .098-.01.196-.01.097-.028.194-.02.096-.048.19-.029.094-.066.185-.038.09-.084.177-.046.087-.1.168-.055.082-.118.158-.062.076-.131.145-.07.07-.146.132-.076.062-.157.117-.082.054-.169.1-.086.047-.177.084-.09.038-.185.067-.094.028-.19.047-.096.02-.194.029-.098.01-.196.01H50.499q-.098 0-.196-.01t-.194-.029q-.096-.019-.19-.047-.094-.029-.185-.067-.09-.037-.177-.083-.087-.047-.169-.101-.081-.055-.157-.117-.076-.062-.146-.132-.069-.07-.131-.145-.063-.076-.117-.158-.055-.081-.101-.168-.046-.087-.084-.177-.037-.091-.066-.185-.028-.094-.048-.19-.019-.097-.028-.194-.01-.098-.01-.196v-1.336q0-.098.01-.196.01-.097.028-.194.02-.096.048-.19.029-.094.066-.185.038-.09.084-.177.046-.087.1-.168.055-.082.118-.158.062-.076.131-.145.07-.07.146-.132.076-.062.157-.117.082-.054.169-.1.086-.047.177-.085.09-.037.185-.066.094-.028.19-.047.096-.02.194-.029.098-.01.196-.01z" fill="#394791"/><path d="M41.833 83.167a9.333 9.333 0 100-18.667 9.333 9.333 0 000 18.667zM72.5 56.5a8 8 0 100-16 8 8 0 000 16z" fill="#979797"/></svg>