<svg width="273" height="129" viewBox="0 0 273 129" xmlns:xlink="http://www.w3.org/1999/xlink" xmlns="http://www.w3.org/2000/svg"><defs><clipPath id="clip_1"><use xlink:href="#path_1"/></clipPath><clipPath id="clip_2"><use xlink:href="#path_2"/></clipPath><clipPath id="clip_3"><use xlink:href="#path_3"/></clipPath><clipPath id="clip_4"><use xlink:href="#path_4"/></clipPath><clipPath id="clip_5"><use xlink:href="#path_5"/></clipPath><clipPath id="clip_6"><use xlink:href="#path_6"/></clipPath><clipPath id="clip_7"><use xlink:href="#path_7"/></clipPath><path d="M0 0h272v128H0V0z" id="path_1"/><path d="M0 0h64v64H0V0z" id="path_2"/><path d="M0 0h53.333v30.667H0V0z" transform="translate(5.333 28)" id="path_3"/><path d="M10.667 21.333c5.89 0 10.666-4.775 10.666-10.666S16.558 0 10.667 0 0 4.776 0 10.667c0 5.89 4.776 10.666 10.667 10.666z" transform="translate(34.667 29.333)" id="path_4"/><path d="M5.333 10.667A5.333 5.333 0 105.333 0a5.333 5.333 0 000 10.667z" transform="translate(40 34.667)" id="path_5"/><path d="M10.667 21.333c5.89 0 10.666-4.775 10.666-10.666S16.558 0 10.667 0 0 4.776 0 10.667c0 5.89 4.776 10.666 10.667 10.666z" transform="translate(8 5.333)" id="path_6"/><path d="M5.333 10.667A5.333 5.333 0 105.333 0a5.333 5.333 0 000 10.667z" transform="translate(13.333 10.667)" id="path_7"/><filter filterUnits="userSpaceOnUse" color-interpolation-filters="sRGB" id="filter_1"><feFlood flood-opacity="0" result="BackgroundImageFix"/><feColorMatrix in="SourceAlpha" values="0 0 0 0 0 0 0 0 0 0 0 0 0 0 0 0 0 0 127 0"/><feOffset dy="1"/><feGaussianBlur stdDeviation="1.5"/><feColorMatrix values="0 0 0 0 0.5921569 0 0 0 0 0.5921569 0 0 0 0 0.5921569 0 0 0 0.3647059 0"/><feBlend in2="BackgroundImageFix" result="effect0_dropShadow"/><feBlend in="SourceGraphic" in2="effect0_dropShadow" result="shape"/></filter></defs><g id="Group" transform="translate(.5 .5)"><g id="Mask"><use fill="#FFF" xlink:href="#path_1"/><g clip-path="url(#clip_1)"><use xlink:href="#path_1" fill="none" stroke="#394791" stroke-width="4"/></g></g><g id="Group-2" transform="translate(24 32)"><g id="+" transform="translate(94 14)" stroke="none"><path d="M18 36c9.941 0 18-8.059 18-18S27.941 0 18 0 0 8.059 0 18s8.059 18 18 18z" id="Oval" fill="#000" fill-opacity=".143"/><path d="M6.001 0h-.002q-.098 0-.195.02-.096.018-.187.056-.091.038-.173.092-.082.055-.151.125-.07.07-.125.151-.054.082-.092.173-.038.09-.057.187Q5 .901 5 1v4H.999q-.098 0-.195.02-.096.018-.187.056-.091.038-.173.092-.082.055-.151.125-.07.07-.125.151-.054.082-.092.173-.038.09-.057.187Q0 5.901 0 6v.002q0 .098.02.195.018.096.056.187.038.091.092.173.055.082.125.151.07.07.151.125.082.054.173.092.09.038.187.057Q.901 7 1 7h4v4.001q0 .098.02.195.018.096.056.187.038.091.092.173.055.082.125.151.07.07.151.125.082.054.173.092.09.038.187.057Q5.901 12 6 12h.002q.098 0 .195-.02.096-.018.187-.056.091-.038.173-.092.082-.055.151-.125.07-.07.125-.151.054-.082.092-.173.038-.09.057-.187Q7 11.099 7 11V7h4.001q.098 0 .195-.02.096-.018.187-.056.091-.038.173-.092.082-.055.151-.125.07-.07.125-.151.054-.082.092-.173.038-.09.057-.187Q12 6.099 12 6v-.002q0-.098-.02-.195-.018-.096-.056-.187-.038-.091-.092-.173-.055-.082-.125-.151-.07-.07-.151-.125-.082-.054-.173-.092-.09-.038-.187-.057Q11.099 5 11 5H7V.999q0-.098-.02-.195-.018-.096-.056-.187-.038-.091-.092-.173-.055-.082-.125-.151-.07-.07-.151-.125-.082-.054-.173-.092-.09-.038-.187-.057Q6.099 0 6 0z" transform="translate(12 12)" id="Combined-Shape" fill="#FFF" fill-rule="evenodd"/></g><g id="пароварка" transform="translate(160)"><g clip-path="url(#clip_2)" id="Rectangle"><use xlink:href="#path_2" fill="none" stroke="#394791" stroke-width="2"/></g><path d="M0 0h64v1.333H0V0z" transform="translate(0 22.667)" id="Rectangle" fill="#394791" stroke="none"/><g filter="url(#filter_1)"><g id="Rectangle"><use fill="#FFF" fill-opacity=".31" xlink:href="#path_3"/><g clip-path="url(#clip_3)"><use xlink:href="#path_3" fill="none" stroke="#394791" stroke-width="2"/></g></g></g><path d="M.999 0h14.002q.098 0 .195.02.096.018.187.056.091.038.173.092.082.055.151.125.07.07.125.151.054.082.092.173.038.09.057.187Q16 .901 16 1v11.335q0 .099-.02.195-.018.097-.056.188-.038.09-.092.172-.055.082-.125.152-.07.07-.151.124-.082.055-.173.092-.09.038-.187.057-.097.02-.195.02H.999q-.098 0-.195-.02-.096-.02-.187-.057-.091-.037-.173-.092-.082-.055-.151-.124-.07-.07-.125-.152-.054-.082-.092-.172-.038-.091-.057-.188Q0 12.433 0 12.334V1Q0 .901.02.804.037.708.075.617.114.526.168.444.223.362.293.293q.07-.07.151-.125Q.526.114.617.076.707.038.804.019.901 0 1 0z" transform="translate(24 5.333)" id="Rectangle" fill="#979797" stroke="none"/><path d="M2.667 5.333a2.667 2.667 0 100-5.333 2.667 2.667 0 000 5.333z" transform="translate(13.333 5.333)" id="Oval" fill="#394791" stroke="none"/><path d="M2.667 5.333a2.667 2.667 0 100-5.333 2.667 2.667 0 000 5.333z" transform="translate(5.333 5.333)" id="Oval" fill="#394791" stroke="none"/><path d="M2.667 5.333a2.667 2.667 0 100-5.333 2.667 2.667 0 000 5.333z" transform="translate(13.333 13.333)" id="Oval" fill="#394791" stroke="none"/><path d="M2.667 5.333a2.667 2.667 0 100-5.333 2.667 2.667 0 000 5.333z" transform="translate(5.333 13.333)" id="Oval" fill="#394791" stroke="none"/><path d="M.499 0h.335q.05 0 .098.01t.093.028q.046.019.087.046.04.027.075.062.035.035.062.076.028.04.046.086.02.045.029.094.01.048.01.097v12.335q0 .05-.01.098t-.029.093q-.018.046-.046.087-.027.04-.062.075-.035.035-.075.062-.041.027-.087.046-.045.02-.093.029-.049.01-.098.01H.5q-.05 0-.097-.01-.049-.01-.094-.029-.045-.018-.086-.046-.041-.027-.076-.062-.035-.035-.062-.075-.027-.041-.046-.087-.019-.045-.028-.093-.01-.049-.01-.098V.5q0-.05.01-.097Q.02.353.038.308.057.263.084.222.111.18.146.146.181.111.222.084.262.057.308.038.353.019.402.01.45 0 .499 0z" transform="translate(45.333 5.333)" id="Rectangle" fill="#394791" stroke="none"/><path d="M.499 0h17.669q.049 0 .097.01t.094.028q.045.019.086.046.04.027.075.062.035.035.063.076.027.04.046.086.018.045.028.094.01.048.01.097v.335q0 .05-.01.098t-.028.093q-.02.046-.046.087-.028.04-.063.075-.034.035-.075.062-.041.028-.086.046-.046.02-.094.029-.048.01-.097.01H.499q-.05 0-.097-.01-.049-.01-.094-.029-.045-.018-.086-.046-.041-.027-.076-.062-.035-.035-.062-.075-.027-.041-.046-.087Q.019.98.01.932 0 .883 0 .834V.5Q0 .45.01.403.02.353.038.308.057.263.084.222.111.18.146.146.181.111.222.084.262.057.308.038.353.019.402.01.45 0 .499 0z" transform="translate(45.333 17.333)" id="Rectangle" fill="#394791" stroke="none"/><path d="M0 0h50.667v1.333H0V0z" transform="translate(6.667 30.667)" id="Rectangle" fill="#979797" fill-opacity=".8" stroke="none"/><path d="M0 0h50.667v1.333H0V0z" transform="translate(6.667 33.333)" id="Rectangle" fill="#979797" fill-opacity=".8" stroke="none"/><path d="M0 0h50.667v1.333H0V0z" transform="translate(6.667 36)" id="Rectangle" fill="#979797" fill-opacity=".8" stroke="none"/><path d="M0 0h50.667v1.333H0V0z" transform="translate(6.667 38.667)" id="Rectangle" fill="#979797" fill-opacity=".8" stroke="none"/><path d="M0 0h50.667v1.333H0V0z" transform="translate(6.667 41.333)" id="Rectangle" fill="#979797" fill-opacity=".8" stroke="none"/><path d="M0 0h50.667v1.333H0V0z" transform="translate(6.667 44)" id="Rectangle" fill="#979797" fill-opacity=".8" stroke="none"/><path d="M0 0h50.667v1.333H0V0z" transform="translate(6.667 46.667)" id="Rectangle" fill="#979797" fill-opacity=".8" stroke="none"/><path d="M0 0h50.667v1.333H0V0z" transform="translate(6.667 52)" id="Rectangle" fill="#979797" fill-opacity=".8" stroke="none"/><path d="M0 0h50.667v1.333H0V0z" transform="translate(6.667 54.667)" id="Rectangle" fill="#979797" fill-opacity=".8" stroke="none"/><path d="M0 0h50.667v1.333H0V0z" transform="translate(6.667 49.333)" id="Rectangle" fill="#979797" fill-opacity=".8" stroke="none"/></g><g id="элекрические"><g clip-path="url(#clip_2)" id="Rectangle"><use xlink:href="#path_2" fill="none" stroke="#394791" stroke-width="2"/></g><g id="Oval"><use fill="#394791" fill-opacity=".298" xlink:href="#path_4"/><g clip-path="url(#clip_4)"><use xlink:href="#path_4" fill="none" stroke="#394791" stroke-width="2"/></g></g><g id="Oval"><use fill="#394791" fill-opacity=".298" xlink:href="#path_5"/><g clip-path="url(#clip_5)"><use xlink:href="#path_5" fill="none" stroke="#394791" stroke-width="2"/></g></g><g id="Oval"><use fill="#394791" fill-opacity=".298" xlink:href="#path_6"/><g clip-path="url(#clip_6)"><use xlink:href="#path_6" fill="none" stroke="#394791" stroke-width="2"/></g></g><g id="Oval"><use fill="#394791" fill-opacity=".298" xlink:href="#path_7"/><g clip-path="url(#clip_7)"><use xlink:href="#path_7" fill="none" stroke="#394791" stroke-width="2"/></g></g><path d="M1.999 0h12.002q.098 0 .196.01t.194.028q.096.02.19.048.094.029.185.066.09.038.177.084.087.046.169.1.081.055.157.118.076.062.146.131.069.07.131.146.063.076.117.157.055.082.101.169.046.086.084.177.037.09.066.185.028.094.048.19.019.096.028.194.01.098.01.196v1.335q0 .099-.01.196-.01.098-.028.194-.02.097-.048.19-.029.095-.066.185-.038.091-.084.178-.046.086-.1.168-.056.082-.118.157-.062.076-.131.146-.07.07-.146.132-.076.062-.157.116-.082.055-.169.101-.086.047-.177.084-.09.038-.185.066-.094.029-.19.048-.096.02-.194.029-.098.01-.196.01H1.999q-.098 0-.196-.01t-.194-.03q-.096-.018-.19-.047-.094-.028-.185-.066-.09-.037-.177-.084-.087-.046-.169-.1-.081-.055-.157-.117-.076-.063-.146-.132-.069-.07-.131-.146-.063-.075-.117-.157-.055-.082-.101-.168Q.19 4.19.152 4.099q-.037-.09-.066-.184-.028-.094-.048-.19Q.02 3.627.01 3.53 0 3.433 0 3.334V2q0-.098.01-.196t.028-.194q.02-.096.048-.19.029-.094.066-.185.038-.09.084-.177.046-.087.1-.169Q.392.807.455.731.516.655.585.585.655.516.731.454.807.39.888.337.97.282 1.057.236q.086-.046.177-.084.09-.037.185-.066.094-.028.19-.048.096-.019.194-.028Q1.901 0 2 0z" transform="translate(24 53.333)" id="Rectangle" fill="#394791" stroke="none"/><path d="M9.333 18.667A9.333 9.333 0 109.333 0a9.333 9.333 0 000 18.667z" transform="translate(8 32)" id="Oval" fill="#979797" stroke="none"/><path d="M8 16A8 8 0 108 0a8 8 0 000 16z" transform="translate(40 8)" id="Oval" fill="#979797" stroke="none"/></g></g></g></svg>