<svg width="18" height="18" viewBox="0 0 18 18" xmlns:xlink="http://www.w3.org/1999/xlink" xmlns="http://www.w3.org/2000/svg"><g id="shopping-cart" stroke="none"><path d="M0 0h18v18H0V0z" id="Rectangle-5" fill="none"/><path d="M13.037 2.25c.523 0 1 .265 1.275.711.276.446.3.99.066 1.46l-2.457 4.914a.75.75 0 01-.671.415H4.5a.75.75 0 01-.724-.553L1.677 1.5H.75a.75.75 0 110-1.5h1.5a.75.75 0 01.724.553l.462 1.697h9.6zm-2.25 6H5.072l-1.228-4.5h9.191l-2.25 4.5zM4.125 13.5a1.125 1.125 0 100-2.25 1.125 1.125 0 000 2.25zm8.625-1.125a1.125 1.125 0 11-2.25 0 1.125 1.125 0 012.25 0z" transform="translate(1.5 2.25)" id="๐จ-Icon-ะกolor" fill="red" fill-rule="evenodd"/></g></svg>