<svg xmlns="http://www.w3.org/2000/svg" width="24" height="24" viewBox="0 0 24 24">
  <g fill="none" fill-rule="evenodd">
    <rect width="24" height="24" fill="#F70000" rx="2"/>
    <path fill="#FFF" d="M13.0168776,3 C13.0168776,3 13.6413502,5.23628692 13.6413502,7.05063291 C13.6413502,8.78902954 12.5021097,10.1983122 10.7637131,10.1983122 C9.01687764,10.1983122 7.70042194,8.78902954 7.70042194,7.05063291 L7.7257384,6.74683544 C6.02109705,8.7721519 5,11.3966245 5,14.2489451 C5,17.978903 8.02109705,21 11.7510549,21 C15.4810127,21 18.5021097,17.978903 18.5021097,14.2489451 C18.5021097,9.70042194 16.3164557,5.64135021 13.0168776,3 Z M11.7510549,19.3122363 C8.95780591,19.3122363 6.68776371,17.0421941 6.68776371,14.2489451 C6.68776371,12.9578059 6.94092827,11.6835443 7.41350211,10.5105485 C8.26582278,11.3628692 9.44725738,11.8860759 10.7637131,11.8860759 C13.0084388,11.8860759 14.7721519,10.3417722 15.2194093,8.14767932 C16.257384,10.0042194 16.814346,12.0886076 16.814346,14.2489451 C16.814346,17.0421941 14.5443038,19.3122363 11.7510549,19.3122363 Z"/>
    <path fill="#FFA7A7" d="M11.3881857,13.5400844 C10.2405063,13.7763713 9.55696203,14.5189873 9.55696203,15.5738397 C9.55696203,16.7046414 10.4936709,17.6160338 11.6582278,17.6160338 C13.3881857,17.6160338 14.7890295,16.2151899 14.7890295,14.4852321 C14.7890295,13.5822785 14.6624473,12.6962025 14.4008439,11.8523207 C13.7341772,12.7552743 12.5443038,13.3037975 11.3881857,13.5400844 Z"/>
  </g>
</svg>
