<svg id="Слой_1" xmlns="http://www.w3.org/2000/svg" viewBox="0 0 40 40"><style>.st1{fill:#f5f5f5}.st2{fill:#ff4b55}</style><path d="M36 40H4c-2.2 0-4-1.8-4-4V4c0-2.2 1.8-4 4-4h32c2.2 0 4 1.8 4 4v32c0 2.2-1.8 4-4 4z" fill-rule="evenodd" clip-rule="evenodd" fill="#41479b"/><path class="st1" d="M21.3 1H20l-6.8 4.5V1H9.5v4.5L2.7 1H1.4c-.4 0-.7.3-.7.7v.6l5.8 3.8H.7v3.7h5.8L.7 13.6v.6c0 .4.3.7.7.7h1.3l6.8-4.5v4.5h3.7v-4.5l6.8 4.5h1.3c.4 0 .7-.3.7-.7v-.6l-5.8-3.8H22V6.1h-5.8L22 2.3v-.6c0-.4-.3-.7-.7-.7z"/><path class="st2" d="M22 6.8h-9.5V1h-2.2v5.8H.7v2.3h9.6v5.8h2.2V9.1H22z"/><path class="st2" d="M8.8 6.1l-7.7-5c-.2.1-.4.3-.4.6l6.7 4.4h1.4zm5.8 0L22 1.3c-.2-.2-.4-.3-.7-.3h-.2l-7.9 5.1h1.4zM8.2 9.8L.9 14.6c.1.2.4.4.6.4h.1l7.9-5.1-1.3-.1zM22 14.3l-6.9-4.5h-1.3l7.8 5.1c.2-.2.4-.4.4-.6z"/><path class="st1" d="M7.2 26.3l.6 1.8 1.8-.7c.2-.1.3.1.2.2l-1.1 1.6 1.7.9c.1.1.1.3-.1.3l-1.9.1.3 1.9c0 .2-.2.3-.3.1L7 31.3l-1.3 1.4c-.1.1-.3 0-.3-.1l.3-1.9-1.9-.1c-.2 0-.2-.2-.1-.3l1.7-.9-1.1-1.6c-.1-.1 0-.3.2-.2l1.8.7.6-1.8c0-.3.2-.3.3-.2zm21.8-13l.3.9.9-.3c.1 0 .1.1.1.1l-.5.8.8.5c.1 0 0 .1 0 .2l-.9.1.1.9c0 .1-.1.1-.1.1l-.6-.7-.6.7c-.1.1-.2 0-.1-.1l.1-.9-.9-.1c-.1 0-.1-.1 0-.2l.8-.5-.8-.8c0-.1 0-.2.1-.1l.9.3.3-.9h.1zm-6 6.9l.3.9.9-.3c.1 0 .1.1.1.1l-.5.8.8.5c.1 0 0 .1 0 .2l-.9.1.1.9c0 .1-.1.1-.1.1l-.6-.7-.6.7c-.1.1-.2 0-.1-.1l.1-.9-.9-.1c-.1 0-.1-.1 0-.2l.8-.5-.5-.8c0-.1 0-.2.1-.1l.9.3.3-.9c-.3-.1-.2-.1-.2 0zm11.7-2.9l.3.9.9-.3c.1 0 .1.1.1.1l-.5.8.8.5c.1 0 0 .1 0 .2l-.9.1.1.9c0 .1-.1.1-.1.1l-.6-.7-.8.5c-.1.1-.2 0-.1-.1l.1-.9-.9-.1c-.1 0-.1-.1 0-.2l.8-.5-.5-.8c0-.1 0-.2.1-.1l.9.3.3-.9c-.1.1 0 .1 0 .2zM29 29l.3.9.9-.3c.1 0 .1.1.1.1l-.5.8.8.5c.1 0 0 .1 0 .2l-.9.1.1.9c0 .1-.1.1-.1.1l-.6-.7-.6.7c-.1.1-.2 0-.1-.1l.1-.9-.9-.1c-.1 0-.1-.1 0-.2l.8-.5-.5-.8c0-.1 0-.2.1-.1l.9.3.3-.9c-.3-.1-.2-.1-.2 0zm2.1-7.2l-.2.7h-.7c-.1 0-.1.1-.1.2l.6.4-.2.7c0 .1.1.2.1.1l.6-.4.6.4c.1.1.2 0 .1-.1l-.2-.8.6-.4c.1-.1 0-.2-.1-.2h-.7l-.2-.7s-.2 0-.2.1z"/><path d="M37 1c1.1 0 2 .9 2 2v34c0 1.1-.9 2-2 2H3c-1.1 0-2-.9-2-2V3c0-1.1.9-2 2-2h34m0-1H3C1.3 0 0 1.3 0 3v34c0 1.7 1.3 3 3 3h34c1.7 0 3-1.3 3-3V3c0-1.7-1.3-3-3-3z" fill="#fff"/></svg>